<svg width="221" height="188" viewBox="0 0 221 188" fill="none" xmlns="http://www.w3.org/2000/svg">
<path d="M213.945 101.414C217.841 101.414 221 98.2557 221 94.3594C221 90.4631 217.841 87.3045 213.945 87.3045C210.049 87.3045 206.89 90.4631 206.89 94.3594C206.89 98.2557 210.049 101.414 213.945 101.414Z" fill="#FEC514"/>
<circle cx="78.7978" cy="86.1372" r="56.3343" fill="#ECF0F6"/>
<path d="M50.8703 21.0615C51.4795 20.7569 52.1903 20.5538 52.7995 20.2492C52.3934 20.0461 51.7842 20.0461 51.378 20.4523C51.1749 20.6554 50.9718 20.8584 50.8703 21.0615Z" fill="#E6EBF2"/>
<path d="M52.9011 7.25154C53.3073 7.35308 53.4088 6.94691 53.5104 6.84536C53.5104 6.74382 53.4089 6.33765 53.2058 6.33765C53.0027 6.33765 52.698 6.43919 52.5965 6.54073C52.5965 6.64228 52.4949 7.14999 52.9011 7.25154Z" fill="#E6EBF2"/>
<path d="M51.2764 14.969C51.0733 15.1721 51.2764 15.5782 51.378 15.6798C51.4795 15.7813 51.7841 15.8829 51.8857 15.6798C51.9872 15.5782 51.9872 15.1721 51.8857 15.0705C51.8857 15.0705 51.4795 14.8674 51.2764 14.969Z" fill="#E6EBF2"/>
<path d="M51.4795 13.0396C51.581 12.8365 51.581 12.4303 51.2764 12.3288C50.9718 12.2272 50.6672 12.4303 50.5656 12.6334C50.4641 12.8365 50.261 13.3442 50.6672 13.5473C51.0734 13.7504 51.378 13.2427 51.4795 13.0396Z" fill="#E6EBF2"/>
<path d="M65.1879 12.1257C65.4925 12.2272 66.3049 11.8211 66.508 11.3134C66.7111 10.8056 66.508 10.2979 66.0002 10.0948C65.4925 9.89175 65.0863 10.0948 64.8833 10.501C64.5786 11.1103 64.7817 11.9226 65.1879 12.1257Z" fill="#E6EBF2"/>
<path d="M57.5721 18.5229C57.4706 18.0152 57.2675 17.609 56.8613 17.5075C56.1505 17.2028 55.2366 17.609 54.932 18.2183C54.8305 18.5229 54.932 18.9291 55.1351 19.3352C56.049 19.0306 56.7598 18.8275 57.5721 18.5229Z" fill="#E6EBF2"/>
<path d="M57.4705 15.375C57.4705 15.4765 57.369 15.6794 57.5719 15.7808C57.6734 15.8823 57.7749 15.6794 57.8763 15.6794C57.8763 15.5779 57.8764 15.375 57.7749 15.375C57.6734 15.2736 57.4705 15.2736 57.4705 15.375Z" fill="#E6EBF2"/>
<path d="M63.3601 9.38404C63.5632 9.18095 63.8678 8.47015 63.6647 8.26706C63.4616 8.06398 62.7508 8.16552 62.4462 8.26706C62.04 8.47015 62.04 8.87632 62.3446 9.2825C62.7508 9.68867 63.0555 9.58713 63.3601 9.38404Z" fill="#E6EBF2"/>
<path d="M64.7817 16.5936C64.8833 16.5936 64.9848 16.5936 65.1879 16.492L65.2894 16.3905C65.4925 16.0858 65.7971 15.375 65.594 15.0704C65.3909 14.7658 64.5787 15.172 64.2741 15.375C63.9694 15.5781 63.9694 15.9843 64.2741 16.2889C64.4771 16.492 64.6802 16.5936 64.7817 16.5936Z" fill="#E6EBF2"/>
<path d="M57.166 10.9071C57.9783 11.3132 59.0953 10.704 59.3999 9.89163C59.7045 9.07928 59.1968 7.86076 58.486 7.55613C57.5721 7.14996 56.4552 7.55613 56.1505 8.36848C55.8459 9.07928 56.4552 10.6024 57.166 10.9071Z" fill="#E6EBF2"/>
<path d="M47.7224 18.2184C48.027 18.2184 48.5347 18.1169 48.7378 17.9138C49.0424 17.6092 48.6362 16.8984 48.2301 16.8984C47.9254 16.7968 47.6208 16.9999 47.4177 17.1015C47.2147 17.6092 47.3162 18.2184 47.7224 18.2184Z" fill="#E6EBF2"/>
<path d="M58.9937 13.2427C58.486 13.4458 58.3845 13.5473 58.283 13.9535C58.1814 14.3597 58.283 14.6643 58.283 14.7659C58.6891 14.7659 59.5014 15.0705 59.7045 14.6643C60.0091 14.2581 59.3999 13.6489 59.2984 13.2427C59.1968 13.2427 59.0953 13.2427 58.9937 13.2427Z" fill="#E6EBF2"/>
<path d="M49.2455 11.7195C49.5501 11.5164 49.6517 10.3995 49.2455 10.1964C48.6363 9.89173 48.1286 9.89173 47.9255 10.7041C47.7224 11.618 48.8394 12.0242 49.2455 11.7195Z" fill="#E6EBF2"/>
<path d="M9.3389 73.5595C9.03427 73.458 8.72962 73.7626 8.62808 73.8641C8.52653 73.9657 8.72963 74.3719 8.83118 74.4734C8.93272 74.575 9.3389 74.4734 9.3389 74.2703C9.54199 74.1688 9.64353 73.661 9.3389 73.5595Z" fill="#E6EBF2"/>
<path d="M8.93274 70.9194C9.03428 70.6148 9.03427 70.2086 8.8312 70.0055C8.62812 69.7009 7.8158 69.8024 7.71426 70.2086C7.61272 70.4117 7.71426 70.8179 7.71426 70.9194C8.22195 71.3256 8.8312 71.224 8.93274 70.9194Z" fill="#E6EBF2"/>
<path d="M6.90186 60.3589C6.39415 60.1558 5.68333 60.3589 5.58179 60.8666C5.37871 61.2728 5.68333 61.9836 6.0895 62.0851C6.49567 62.1867 7.10494 61.9836 7.30802 61.4759C7.51111 61.0697 7.30803 60.562 6.90186 60.3589Z" fill="#E6EBF2"/>
<path d="M7.61262 75.2858C7.91726 75.4889 8.62808 75.7935 8.83117 75.4889C9.03426 75.1843 8.72964 74.3719 8.52655 74.1688C8.22192 73.8642 7.71418 73.9657 7.40955 74.3719C7.10492 74.6765 7.30799 75.0827 7.61262 75.2858Z" fill="#E6EBF2"/>
<path d="M15.6346 54.4695C15.6346 54.2664 15.4315 53.8602 15.2284 53.7587C15.0253 53.6571 14.3145 53.6571 14.2129 53.8602C14.1114 54.0633 14.5176 54.6725 14.7207 54.8756C14.9238 55.0787 15.6346 54.7741 15.6346 54.4695Z" fill="#E6EBF2"/>
<path d="M17.767 45.9398C17.767 46.4476 18.884 46.9553 19.1887 46.6506C19.4933 46.346 19.1887 45.229 18.6809 45.229C18.2748 45.1275 17.767 45.5337 17.767 45.9398Z" fill="#E6EBF2"/>
<path d="M9.13581 58.6326C9.3389 58.4296 9.23736 58.1249 9.13581 58.0234C9.03426 57.9218 8.52652 57.7188 8.42497 57.8203C8.22187 58.0234 8.42498 58.4296 8.52653 58.5311C8.62808 58.7342 9.03426 58.8357 9.13581 58.6326Z" fill="#E6EBF2"/>
<path d="M7.61263 65.7408C7.308 66.0454 7.40956 66.8578 8.01882 67.467C8.22191 67.467 8.62807 67.467 8.83116 67.3655C9.33887 66.9593 9.44043 66.147 9.03426 65.8423C8.72963 65.3346 7.91726 65.3346 7.61263 65.7408Z" fill="#E6EBF2"/>
<path d="M6.59722 77.1136C5.98795 76.6058 4.97251 76.5043 4.56633 77.012C4.2617 77.3167 4.16017 77.8244 4.26171 78.3321C4.76944 78.6367 5.37871 78.8398 5.88643 79.1444C6.08952 79.0429 6.29261 78.9414 6.4957 78.7383C7.10497 78.2305 7.10494 77.5197 6.59722 77.1136Z" fill="#E6EBF2"/>
<path d="M20.0009 39.3394C20.1025 38.9333 19.7978 38.2225 19.2901 38.0194C18.7824 37.9178 18.2747 38.2225 18.0716 38.6286C17.8685 39.1364 18.1732 39.5425 18.6809 39.8472C19.2901 40.1518 19.8994 39.9487 20.0009 39.3394Z" fill="#E6EBF2"/>
<path d="M3.14431 75.8947C3.24577 75.7932 3.14431 75.6918 3.14431 75.5903C3.04284 75.5903 2.83992 75.5903 2.73845 75.5903C2.73845 75.5903 2.63699 75.8947 2.73845 75.8947C2.83992 75.8947 3.04284 75.9961 3.14431 75.8947Z" fill="#E6EBF2"/>
<path d="M11.9791 59.5466C12.1822 59.1404 12.0807 58.5311 11.573 58.2265C11.0652 57.9219 10.659 58.125 10.4559 58.5311C10.1513 59.0389 10.3544 59.5466 10.7606 59.8512C11.2683 60.0543 11.776 59.8512 11.9791 59.5466Z" fill="#E6EBF2"/>
<path d="M10.4558 66.7561C10.4558 67.0608 10.7605 67.3654 11.0651 67.467C11.1666 66.9592 11.3697 66.5531 11.4713 66.0453C11.1666 66.0453 10.4558 66.4515 10.4558 66.7561Z" fill="#E6EBF2"/>
<path d="M9.74507 68.6854C9.64353 68.9901 9.33889 69.5993 9.74507 69.904C10.0497 70.1071 10.2528 70.0055 10.5575 69.904C10.659 69.4978 10.7605 69.0916 10.8621 68.6854C10.4559 68.2793 9.94816 68.2793 9.74507 68.6854Z" fill="#E6EBF2"/>
<path d="M95.4479 2.98682C95.7525 2.78374 95.651 1.7683 95.4479 1.56521C95.1433 1.46367 94.8386 1.66676 94.534 1.7683C94.2294 1.97139 94.1278 2.37756 94.4325 2.68219C94.6355 3.08837 94.9402 3.29145 95.4479 2.98682Z" fill="#E6EBF2"/>
<path d="M88.8475 13.5473C89.1522 13.4457 89.6599 13.2426 89.7614 12.938C90.066 12.2272 89.4568 12.0241 88.9491 11.7195C88.3398 12.1257 87.8321 12.4303 88.1368 13.1411C88.2383 13.2426 88.6445 13.5473 88.8475 13.5473Z" fill="#E6EBF2"/>
<path d="M59.2983 16.1875C59.5014 16.0859 59.3998 15.5782 59.1967 15.3751C59.0952 15.2736 58.7905 15.172 58.5874 15.2736C58.3843 15.3751 58.4859 15.7813 58.5874 15.8828C58.5874 16.0859 59.0952 16.3906 59.2983 16.1875Z" fill="#E6EBF2"/>
<path d="M49.0425 20.4523C49.0425 20.1476 49.0425 19.7415 48.8394 19.5384C48.6363 19.3353 47.7224 19.4368 47.6209 19.843C47.4178 20.2492 47.6209 20.7569 48.1286 20.96C48.4332 21.0615 48.941 20.96 49.0425 20.4523Z" fill="#E6EBF2"/>
<path d="M80.9272 14.5629C81.3334 14.6644 81.5365 14.3598 81.5365 14.1567C81.5365 13.8521 81.3334 13.649 81.1303 13.4459C80.9272 13.2428 80.8256 13.0397 80.5209 12.9382C80.2163 12.9382 80.0132 13.3443 80.1147 13.649C80.2163 14.0551 80.6225 14.4613 80.9272 14.5629Z" fill="#E6EBF2"/>
<path d="M87.6291 15.6798C88.2383 15.7813 88.949 15.7813 89.5583 15.8829C89.5583 15.6798 89.4567 15.5782 89.3552 15.3751C88.8475 14.8674 88.2383 15.0705 87.7306 15.2736C87.7306 15.4767 87.6291 15.5782 87.6291 15.6798Z" fill="#E6EBF2"/>
<path d="M95.3463 6.94711C95.7525 6.64248 95.7525 5.83013 95.3463 5.5255C95.0417 5.22087 94.5339 5.11932 94.1277 5.5255C93.6199 5.93167 93.6199 6.54093 93.9246 6.94711C94.3308 7.25174 95.0417 7.25174 95.3463 6.94711Z" fill="#E6EBF2"/>
<path d="M116.975 16.7967C116.569 17.1013 116.467 17.7106 116.874 18.1168C117.178 18.4214 117.889 18.5229 118.194 18.3198C118.6 18.0152 118.6 17.406 118.295 16.9998C117.889 16.5936 117.381 16.4921 116.975 16.7967Z" fill="#E6EBF2"/>
<path d="M69.2496 7.25159C69.4527 7.0485 69.6557 6.64233 69.4527 6.43924C69.3511 6.23615 68.8434 6.23615 68.6404 6.3377C68.4373 6.43924 68.1327 7.0485 68.3358 7.25159C68.4373 7.45468 69.1481 7.35313 69.2496 7.25159Z" fill="#E6EBF2"/>
<path d="M75.9515 1.86988C76.3577 1.56525 76.3577 0.955984 76.053 0.549811C75.7484 0.143637 75.3423 0.0420935 74.8346 0.448267C74.4284 0.752898 74.3269 1.36216 74.733 1.76833C74.9361 2.07296 75.6469 2.17451 75.9515 1.86988Z" fill="#E6EBF2"/>
<path d="M75.5453 15.1724C75.8502 15.1724 76.0535 15.1724 76.3584 15.1724C76.3584 14.9692 76.3584 14.7659 76.1551 14.7659C76.0535 14.6642 75.6469 14.9692 75.5453 15.1724Z" fill="#E6EBF2"/>
<path d="M80.9272 11.3133C81.2318 11.0087 81.3334 10.6025 81.0287 10.1964C80.8256 9.89174 79.8102 9.89174 79.6071 10.1964C79.404 10.501 79.5055 10.8056 79.7086 11.1103C79.9117 11.618 80.521 11.618 80.9272 11.3133Z" fill="#E6EBF2"/>
<path d="M77.7793 7.65772C78.0839 7.45463 77.8808 6.84537 77.5762 6.4392C77.2716 6.13457 76.9669 6.13457 76.7639 6.4392C76.4592 6.74383 76.2562 7.15 76.5608 7.55617C76.8654 7.8608 77.5762 7.96235 77.7793 7.65772Z" fill="#E6EBF2"/>
<path d="M92.6046 15.5783C92.3 15.2736 91.8938 14.969 91.5892 15.2736C91.2846 15.5783 91.0815 15.8829 91.0815 16.086C91.6907 16.1875 92.3 16.2891 93.0108 16.3906C93.0108 16.1875 92.9092 15.7814 92.6046 15.5783Z" fill="#E6EBF2"/>
<path d="M73.413 10.501C73.5146 10.3995 73.8192 10.0948 73.6161 9.79021C73.413 9.48557 73.0068 9.7902 72.9053 9.89175C72.8037 9.99329 72.8037 10.2979 72.8037 10.3995C72.9053 10.501 73.2099 10.501 73.413 10.501Z" fill="#E6EBF2"/>
<path d="M74.2253 15.3752C74.6314 14.7659 74.6314 14.0551 74.1237 13.4458C73.5145 12.735 72.1944 12.6335 71.5852 13.2427C70.9759 13.7505 70.8744 14.8674 71.3821 15.5782C72.296 15.4767 73.2099 15.3752 74.2253 15.3752Z" fill="#E6EBF2"/>
<path d="M82.8565 0.752867C82.958 0.651323 83.1611 0.143604 83.0596 0.0420608C82.958 -0.0594829 82.4503 0.0420608 82.3487 0.143604C82.2472 0.245148 82.2472 0.549779 82.2472 0.651323C82.4503 0.752867 82.7549 0.85441 82.8565 0.752867Z" fill="#E6EBF2"/>
<path d="M89.4568 8.87628C89.9645 8.36856 90.0661 7.55621 89.6599 7.15004C89.2538 6.64232 88.1368 6.54077 87.7307 6.94695C87.3245 7.25158 87.5276 8.36856 88.0353 8.87628C88.3399 9.28245 89.1522 9.28245 89.4568 8.87628Z" fill="#E6EBF2"/>
<path d="M86.7151 4.00225C87.0197 3.69762 87.0197 3.08836 86.7151 2.68218C86.3089 2.27601 85.8012 2.37755 85.395 2.78373C84.9888 3.1899 84.7858 3.69762 85.0904 4.00225C85.395 4.30688 86.3089 4.30688 86.7151 4.00225Z" fill="#E6EBF2"/>
<path d="M85.3945 1.26021C85.496 1.15876 85.3945 0.955863 85.3945 0.854414C85.2931 0.752966 85.0903 0.854414 85.0903 0.854414C84.9888 0.955863 84.9888 1.05731 85.0903 1.15876C85.0903 1.36166 85.1917 1.36166 85.3945 1.26021Z" fill="#E6EBF2"/>
<path d="M84.2781 11.5164C84.5827 11.8211 84.8873 11.618 85.0903 11.4149C85.4965 11.1103 85.4965 10.6025 85.0903 10.3995C84.7857 10.1964 84.4811 9.99328 84.2781 10.1964C84.075 10.2979 83.9735 11.2118 84.2781 11.5164Z" fill="#E6EBF2"/>
<path d="M84.1765 5.42383C84.3796 5.22074 84.278 4.81457 84.1765 4.71302C84.075 4.61148 83.6689 4.30685 83.5674 4.50994C83.3643 4.71302 83.3643 5.01766 83.4658 5.1192C83.4658 5.32229 83.9735 5.62692 84.1765 5.42383Z" fill="#E6EBF2"/>
<path d="M9.23751 46.5495C9.33916 46.5495 9.54248 46.5495 9.54248 46.4479C9.54248 46.3463 9.54247 46.143 9.44082 46.0413C9.33917 45.9397 9.13585 46.143 9.13585 46.2446C9.0342 46.2446 9.13586 46.4479 9.23751 46.5495Z" fill="#E6EBF2"/>
<path d="M105.094 11.5164C105.298 11.4149 105.602 10.8056 105.399 10.501C105.196 10.2979 104.587 10.3995 104.282 10.501C103.876 10.7041 103.876 11.4149 104.181 11.5164C104.485 11.7195 104.891 11.7195 105.094 11.5164Z" fill="#E6EBF2"/>
<path d="M100.931 10.3995C100.322 10.9072 100.424 11.618 100.931 12.2273C101.337 12.735 102.048 12.6334 102.657 12.1257C103.165 11.7196 103.267 11.1103 102.962 10.7041C102.657 10.1964 101.337 9.99331 100.931 10.3995Z" fill="#E6EBF2"/>
<path d="M99.9158 13.6488C99.6111 13.9534 99.6111 14.6642 99.9158 14.9689C100.322 15.2735 100.83 15.2735 101.236 14.8673C101.642 14.4611 101.642 14.055 101.236 13.6488C100.931 13.3442 100.322 13.3442 99.9158 13.6488Z" fill="#E6EBF2"/>
<path d="M105.196 16.1874C104.485 16.7967 104.485 17.609 105.094 18.1168C105.704 18.726 106.415 18.726 106.922 18.1168C107.43 17.609 107.633 16.6952 107.227 16.1874C106.821 15.7813 105.602 15.7813 105.196 16.1874Z" fill="#E6EBF2"/>
<path d="M111.289 18.3199C111.492 18.0153 111.289 17.406 110.984 17.2029C110.476 16.9998 109.664 17.8122 109.765 18.1168C109.867 18.4214 111.086 18.7261 111.289 18.3199Z" fill="#E6EBF2"/>
<path d="M110.679 14.4612C111.086 13.9535 111.39 13.3442 111.593 12.7349C111.796 12.1257 111.289 11.1102 110.578 10.8056C110.172 10.6025 109.258 10.501 109.055 11.4149C109.461 12.8365 108.446 12.7349 108.344 13.8519C108.344 14.055 108.446 14.2581 108.446 14.3596C109.055 15.2735 110.07 15.3751 110.679 14.4612Z" fill="#E6EBF2"/>
<path d="M1.31696 73.6612C1.31696 74.2704 1.4185 74.372 1.82469 74.5751C2.12934 74.7782 2.43397 74.8797 2.63707 74.8797C2.73861 74.4735 3.34789 73.8643 3.04325 73.4581C2.73861 73.0519 2.02777 73.4581 1.52003 73.4581C1.41848 73.4581 1.31696 73.5596 1.31696 73.6612Z" fill="#E6EBF2"/>
<path d="M4.05861 47.666C4.16015 47.4629 4.05863 47.0567 3.95709 46.9552C3.754 46.7521 3.3478 46.6506 3.14472 46.7521C2.53545 47.0567 2.63701 47.7676 2.94165 48.0722C2.94165 48.2753 3.75397 48.2753 4.05861 47.666Z" fill="#E6EBF2"/>
<path d="M96.1586 16.4921C95.9555 16.6952 95.854 16.8983 95.7524 17.1013C96.6663 17.3044 97.5802 17.6091 98.4941 17.8122C98.4941 17.406 98.3926 16.9998 98.1895 16.6952C97.6818 16.1875 96.6663 15.9844 96.1586 16.4921Z" fill="#E6EBF2"/>
<path d="M5.17565 68.5839C5.48028 68.6854 6.08955 68.5839 6.29264 68.1777C6.49573 67.7715 5.98799 67.1623 5.58182 66.9592C5.37873 66.7561 4.26174 66.8577 4.05866 67.2638C3.85557 67.67 4.76947 68.3808 5.17565 68.5839Z" fill="#E6EBF2"/>
<path d="M96.4633 13.1411C96.8695 12.735 96.8695 11.618 96.4633 11.1103C96.1587 10.7041 95.0417 10.7041 94.6355 11.1103C94.2294 11.4149 94.1278 12.2272 94.4324 12.5319C95.0417 13.3442 95.9556 13.5473 96.4633 13.1411Z" fill="#E6EBF2"/>
<path d="M2.23083 67.4671C2.43392 67.1624 2.23084 66.3501 1.92622 65.9439C1.52005 65.5378 1.01232 65.6393 0.606155 66.0455C0.301529 66.4516 0.301529 66.9594 0.606155 67.264C1.11386 67.6702 1.92621 67.7717 2.23083 67.4671Z" fill="#E6EBF2"/>
<path d="M129.973 31.8252C129.77 31.9267 129.871 32.3329 129.973 32.4344C130.074 32.536 130.48 32.8406 130.683 32.6375C130.887 32.536 130.785 32.0282 130.582 31.8252C130.582 31.8252 130.176 31.7236 129.973 31.8252Z" fill="#E6EBF2"/>
<path d="M110.984 20.4523C110.375 20.5538 110.07 20.8585 110.172 21.4677C110.172 21.6708 110.578 21.9754 110.679 21.9754C110.984 21.9754 111.39 21.7724 111.593 21.5693C111.796 21.0616 111.39 20.7569 110.984 20.4523Z" fill="#E6EBF2"/>
<path d="M126.825 29.2867C126.419 29.6928 126.419 30.3021 126.825 30.6067C127.129 30.9113 127.434 30.7083 127.637 30.5052C128.043 30.2005 128.043 29.6928 127.637 29.4897C127.434 29.3882 127.129 29.3882 126.825 29.2867Z" fill="#E6EBF2"/>
<path d="M117.28 20.6553C116.874 20.2491 116.366 20.3507 115.96 20.6553C115.553 21.0615 115.452 21.6707 115.858 22.0769C116.163 22.3815 116.975 22.3815 117.28 21.9754C117.686 21.5692 117.686 20.9599 117.28 20.6553Z" fill="#E6EBF2"/>
<path d="M5.78485 53.5556C6.19103 53.7586 6.80031 53.454 7.00339 53.0478C7.20648 52.4386 7.00339 51.9309 6.49567 51.7278C5.98795 51.5247 5.37867 51.8293 5.17558 52.337C4.9725 52.7432 5.17559 53.3525 5.78485 53.5556Z" fill="#E6EBF2"/>
<path d="M118.295 26.4433C117.99 26.3418 117.686 26.3418 117.483 26.4433C117.991 26.748 118.6 27.1542 119.107 27.4588C119.006 27.0526 118.701 26.6464 118.295 26.4433Z" fill="#E6EBF2"/>
<path d="M121.443 19.843C121.24 19.5384 120.935 19.3353 120.529 19.5384C120.123 19.7415 119.92 20.4523 120.326 20.6554C120.631 20.8585 121.24 21.2647 121.646 20.96C121.951 20.6554 121.646 20.1477 121.443 19.843Z" fill="#E6EBF2"/>
<path d="M123.779 23.194C123.474 23.2955 123.169 23.4986 122.763 23.4986C122.154 23.4986 121.646 23.8032 121.341 24.311C121.138 24.7171 121.748 25.8341 122.255 26.0372C122.763 26.2403 123.271 26.4434 123.677 25.8341C123.982 25.4279 124.388 25.0218 124.692 24.6156C125.2 24.311 125.302 23.8032 124.997 23.3971C124.896 22.9909 124.388 22.8893 123.779 23.194Z" fill="#E6EBF2"/>
<path d="M38.1773 24.1078C38.685 23.8032 38.888 22.9908 38.1773 22.4831C37.8726 22.28 37.3649 22.28 37.0603 22.3815C36.8572 22.4831 36.5526 22.9908 36.6541 23.2954C36.7557 24.1078 37.6695 24.4124 38.1773 24.1078Z" fill="#E6EBF2"/>
<path d="M33.9124 23.2954C33.7093 23.7016 33.9124 24.3109 34.4201 24.5139C34.9278 24.717 35.5371 24.6155 35.7402 24.1078C35.9433 23.6 35.7402 23.0923 35.334 22.7877C34.8263 22.5846 34.1155 22.8892 33.9124 23.2954Z" fill="#E6EBF2"/>
<path d="M33.9124 27.5603C33.8109 27.4588 33.7093 27.3572 33.6078 27.3572C33.2016 27.2557 32.6939 27.5603 32.4908 28.068C32.2877 28.6773 32.4908 29.3881 32.9985 29.5912C33.5062 29.7943 34.014 29.4897 34.217 28.9819C34.4201 29.185 34.7248 29.2866 35.0294 29.3881C35.4356 29.4897 35.8417 29.5912 36.1464 29.8958C37.0603 29.185 38.0757 28.4742 38.9896 27.7634C38.8881 27.6619 38.7865 27.5603 38.685 27.4588C38.0757 27.0526 37.3649 27.0526 36.6541 27.0526C36.451 27.0526 36.1464 27.0526 35.9433 26.9511C34.9279 26.4434 34.3186 26.6464 33.9124 27.5603Z" fill="#E6EBF2"/>
<path d="M18.6802 49.4937C18.579 49.5949 18.4778 49.6961 18.4778 49.7973V49.8985C18.579 49.6961 18.6802 49.5949 18.6802 49.4937Z" fill="#E6EBF2"/>
<path d="M31.6785 21.6708C32.1862 21.4677 32.2877 21.0615 32.0846 20.0461C31.5769 19.9446 30.9677 19.6399 30.5615 20.3507C30.3584 20.7569 30.3584 21.2646 30.7646 21.5693C31.0692 21.6708 31.4754 21.7723 31.6785 21.6708Z" fill="#E6EBF2"/>
<path d="M32.9985 15.8828C33.9125 16.289 35.0295 15.8828 35.3341 14.9689C35.6387 14.1566 35.4356 13.3443 34.7248 13.0396C33.8109 12.6335 32.3893 13.1412 32.1862 13.852C31.8816 14.6643 32.2877 15.5782 32.9985 15.8828Z" fill="#E6EBF2"/>
<path d="M38.7865 18.9291C39.1927 19.1322 39.8019 18.4214 39.8019 17.7106C39.8019 16.9997 38.7865 16.8982 38.4819 16.9997C38.1773 17.1013 38.4819 18.726 38.7865 18.9291Z" fill="#E6EBF2"/>
<path d="M29.1398 25.5295C29.6476 25.7326 30.7645 25.4279 31.0692 25.0218C31.3738 24.4125 31.0692 23.7017 30.3584 23.2955C29.8507 22.9909 29.1398 23.3971 28.8352 24.1079C28.429 24.7171 28.6321 25.3264 29.1398 25.5295Z" fill="#E6EBF2"/>
<path d="M7.71425 38.1209C8.12043 38.0193 8.62816 38.1209 8.9328 37.7147C9.13589 37.3085 8.62816 37.0039 8.42507 37.0039C8.01889 36.9024 7.105 37.0039 7.00345 37.3085C6.80036 37.5116 7.51116 38.1209 7.71425 38.1209Z" fill="#E6EBF2"/>
<path d="M42.1374 19.5384C41.8328 20.1476 41.6297 20.7569 41.5282 21.3662C41.4267 22.077 42.0359 22.9909 42.7467 23.194C43.1529 23.2955 43.5591 23.2955 43.7622 22.8893C44.2699 21.9754 44.6761 20.96 44.5745 19.843C44.5745 19.6399 44.473 19.4368 44.3714 19.3353C43.6606 18.5229 42.6452 18.5229 42.1374 19.5384Z" fill="#E6EBF2"/>
<path d="M24.4689 40.5579C24.3673 40.761 24.3673 41.0656 24.4689 41.3702C24.7735 40.9641 25.1797 40.5579 25.4843 40.1517C25.0781 39.9486 24.6719 40.1517 24.4689 40.5579Z" fill="#E6EBF2"/>
<path d="M30.7646 34.4653C31.1708 34.0591 31.5769 33.6529 31.9831 33.2468C32.0846 32.6375 31.78 32.1298 31.0692 31.9267C30.3584 31.6221 29.5461 31.8252 29.343 32.3329C29.1399 32.9421 29.6476 34.0591 30.3584 34.3637C30.5615 34.4653 30.663 34.4653 30.7646 34.4653Z" fill="#E6EBF2"/>
<path d="M42.8482 17.6091C42.9498 17.8122 43.4575 17.7106 43.5591 17.6091C43.6606 17.5076 43.8637 17.2029 43.7622 16.9998C43.6606 16.7968 43.2544 16.7968 43.1528 16.8983C42.9497 16.9998 42.7467 17.406 42.8482 17.6091Z" fill="#E6EBF2"/>
<path d="M42.2391 15.0706C42.6453 15.0706 43.153 13.8521 42.7468 13.4459C42.4422 13.1412 41.7314 13.1412 41.5283 13.4459C41.2237 13.9536 41.8329 15.0706 42.2391 15.0706Z" fill="#E6EBF2"/>
<path d="M41.5282 8.87642C41.6297 8.67333 41.7312 7.96253 41.2235 7.75944C40.7158 7.55635 40.4112 8.16562 40.4112 8.3687C40.3096 8.57179 40.5127 8.97796 40.7158 9.18105C40.9189 9.48568 41.4266 9.18105 41.5282 8.87642Z" fill="#E6EBF2"/>
<path d="M14.9237 40.6595C15.4315 40.8626 15.9392 40.6595 16.1423 40.2533C16.3453 39.8471 16.1422 39.1363 15.7361 38.9332C15.3299 38.7301 14.7207 38.9332 14.5176 39.4409C14.213 39.9487 14.416 40.4564 14.9237 40.6595Z" fill="#E6EBF2"/>
<path d="M13.4006 50.2046C14.5176 49.1892 14.9237 50.2046 15.9392 49.6969C16.1423 49.5953 16.2438 49.3922 16.3454 49.3922C17.0562 48.4783 16.65 47.5645 15.6346 47.3614C15.0253 47.2598 14.3145 47.2598 13.6037 47.3614C12.8929 47.4629 12.2836 48.3768 12.2836 49.0876C12.1821 49.4938 12.4867 50.4077 13.4006 50.2046Z" fill="#E6EBF2"/>
<path d="M15.8378 36.293C16.2439 36.4961 16.9547 36.3946 16.9547 35.9884C17.0563 35.6838 17.0563 34.8714 16.6501 34.6683C16.244 34.4652 15.8378 35.0745 15.6347 35.2776C15.5332 35.5822 15.4316 35.9884 15.8378 36.293Z" fill="#E6EBF2"/>
<path d="M10.5574 33.0437C10.6589 33.1453 10.9635 33.0437 11.0651 32.8406C11.1666 32.6375 11.0651 32.3329 10.9635 32.2314C10.862 32.1298 10.3543 32.1298 10.2527 32.3329C10.0497 32.6375 10.4558 32.9422 10.5574 33.0437Z" fill="#E6EBF2"/>
<path d="M10.5575 43.6042C11.0652 43.8073 11.8775 43.4011 12.0806 42.6903C12.3852 41.878 12.0806 41.2687 11.2682 40.9641C10.5574 40.6594 9.74513 40.8625 9.54205 41.4718C9.44051 42.2841 9.84668 43.198 10.5575 43.6042Z" fill="#E6EBF2"/>
<path d="M18.3763 32.536C18.6809 33.1452 19.0871 33.4499 19.6964 33.4499C20.2041 33.4499 20.9149 32.4344 20.8133 31.8252C20.8133 31.3174 20.8133 30.7082 20.001 30.6066C19.4933 30.5051 18.9856 30.302 18.3763 30.2005C17.8686 29.7943 17.3609 29.9974 17.1578 30.4036C16.8531 30.9113 17.0562 31.419 17.5639 31.8252C17.9701 32.0282 18.2747 32.2313 18.3763 32.536Z" fill="#E6EBF2"/>
<path d="M26.7029 28.1696C26.8044 27.7634 26.6014 27.5603 26.2967 27.4588C25.8906 27.2557 25.3828 27.4588 25.3828 27.8649C25.3828 28.1696 25.4844 28.4742 25.5859 28.7788C26.0936 28.8804 26.6013 28.5757 26.7029 28.1696Z" fill="#E6EBF2"/>
<path d="M23.9612 36.4962C23.7581 37.3086 24.0628 38.2225 24.7736 38.5271C25.4844 38.8317 26.1952 38.7302 26.7029 38.324C26.7029 38.4255 26.7029 38.5271 26.7029 38.5271C27.3121 37.8163 27.9214 37.207 28.6322 36.4962C28.1244 36.4962 27.7183 36.6993 27.4136 36.9024C27.4136 36.9024 27.3121 36.9024 27.3121 37.0039C27.3121 36.3947 26.9059 35.887 26.1952 35.5823C25.8905 35.4808 25.6874 35.3792 25.3828 35.3792C25.4843 35.1762 25.5859 34.9731 25.4843 34.77C25.3828 34.1607 24.4689 33.7546 23.8597 33.9576C23.3519 34.1607 22.8442 34.77 22.8442 35.3792C23.0473 36.0901 23.7581 36.3947 23.9612 36.4962Z" fill="#E6EBF2"/>
<path d="M25.8905 32.536C25.5859 33.0437 25.789 33.5514 26.2967 33.7545C26.8044 33.9576 27.4137 33.7545 27.6168 33.3483C27.8199 32.9421 27.5152 32.4344 27.0075 32.1298C26.6013 31.9267 26.0936 32.1298 25.8905 32.536Z" fill="#E6EBF2"/>
<path d="M23.1488 25.834C23.2504 25.4279 23.0473 25.2248 22.7426 25.1232C22.3365 24.9201 21.8287 25.1232 21.8287 25.5294C21.8287 25.834 21.9303 26.1387 22.0318 26.4433C22.438 26.5448 22.9457 26.2402 23.1488 25.834Z" fill="#E6EBF2"/>
<path d="M21.6257 45.0259C21.8288 44.7212 22.0319 44.4166 22.235 44.2135C22.0319 43.9089 21.7273 43.6042 21.4226 43.6042C20.8134 43.6042 20.8134 44.112 20.7119 44.5181C21.0165 44.9243 21.3211 45.1274 21.6257 45.0259Z" fill="#E6EBF2"/>
<path d="M22.8441 22.4832C23.0472 22.5847 23.3519 22.3816 23.4534 22.2801C23.5549 22.1785 23.5549 21.5693 23.3518 21.5693C23.1488 21.5693 22.7426 21.7724 22.6411 21.9754C22.6411 21.9754 22.641 22.3816 22.8441 22.4832Z" fill="#E6EBF2"/>
<path d="M79.5597 29C48.2843 29 23 54.2843 23 85.5597C23 86.7783 23 87.8953 23.1015 89.1138C43.2072 102.721 60.0634 120.694 72.4517 141.713C74.7872 142.018 77.1227 142.221 79.5597 142.221C110.835 142.221 136.119 116.937 136.119 85.6613C136.119 54.3859 110.835 29 79.5597 29Z" fill="#ECF0F6"/>
<path d="M124.286 156.521C143.073 156.521 158.303 141.291 158.303 122.504C158.303 103.716 143.073 88.4865 124.286 88.4865C105.499 88.4865 90.2691 103.716 90.2691 122.504C90.2691 141.291 105.499 156.521 124.286 156.521Z" fill="#7DE2D1"/>
<path d="M135.557 90.4158C132.003 89.1973 128.246 88.4865 124.286 88.4865C105.501 88.4865 90.2691 103.718 90.2691 122.504C90.2691 128.901 91.9953 134.79 95.0416 139.868C117.077 133.47 133.527 113.974 135.557 90.4158Z" fill="#00BFB3"/>
<path d="M118.6 127.175C118.701 127.073 118.6 126.565 118.498 126.464C118.498 126.464 118.397 126.362 118.295 126.362C118.194 126.464 117.991 126.667 117.889 126.768C117.889 126.87 117.889 126.87 117.889 126.972C117.991 127.175 118.498 127.378 118.6 127.175Z" fill="#00BFB3"/>
<path d="M117.787 129.408C117.889 129.307 117.787 129.104 117.787 129.104C117.686 129.002 117.584 129.002 117.483 129.104C117.381 129.205 117.381 129.408 117.483 129.51C117.584 129.611 117.787 129.51 117.787 129.408Z" fill="#00BFB3"/>
<path d="M120.529 132.354C121.139 132.252 121.443 131.44 121.342 130.729C121.24 130.221 120.935 130.12 120.428 130.12C119.717 130.221 119.209 130.83 119.311 131.338C119.311 131.744 120.022 132.354 120.529 132.354Z" fill="#00BFB3"/>
<path d="M110.984 146.366C111.492 146.265 111.796 145.554 111.695 144.742C111.593 144.336 111.39 144.031 111.086 143.828C111.492 143.32 111.492 142.711 111.086 142.203C110.578 141.695 109.766 141.594 109.461 141.899C108.953 142.406 108.953 143.422 109.359 144.031C109.055 144.336 108.852 144.64 108.953 145.046C109.055 145.859 110.172 146.57 110.984 146.366Z" fill="#00BFB3"/>
<path d="M113.015 147.483C113.421 147.077 113.523 146.569 113.218 146.163C112.913 145.859 112.406 145.757 112 145.96C111.593 146.265 111.492 146.874 111.797 147.28C112.203 147.686 112.609 147.788 113.015 147.483Z" fill="#00BFB3"/>
<path d="M114.741 130.729C115.046 131.033 115.655 131.033 116.061 130.627C116.467 130.221 116.366 129.713 115.96 129.307C115.757 129.104 115.553 129.002 115.35 128.901C115.147 129.104 114.843 129.307 114.64 129.51C114.538 130.018 114.538 130.526 114.741 130.729Z" fill="#00BFB3"/>
<path d="M120.732 134.587C120.834 134.486 120.834 134.181 120.732 133.978C120.631 133.877 120.326 133.775 120.123 133.877C120.022 133.978 119.717 134.384 119.92 134.587C120.225 134.79 120.631 134.689 120.732 134.587Z" fill="#00BFB3"/>
<path d="M114.538 144.945C114.538 144.437 114.03 144.132 113.421 144.234C112.913 144.335 112.71 144.742 112.71 145.148C112.812 145.656 113.116 145.96 113.624 145.859C114.233 145.859 114.64 145.452 114.538 144.945Z" fill="#00BFB3"/>
<path d="M119.717 139.157C120.123 139.157 120.428 138.852 120.428 138.345C120.428 137.634 120.123 137.126 119.818 137.024C119.412 137.024 118.701 137.634 118.701 138.141C118.6 138.548 119.209 139.157 119.717 139.157Z" fill="#00BFB3"/>
<path d="M133.527 146.366C133.628 146.163 133.73 145.757 133.628 145.554C133.527 145.148 132.714 145.148 132.511 145.452C132.41 145.656 132.41 145.96 132.308 146.163C132.816 146.671 133.324 146.773 133.527 146.366Z" fill="#00BFB3"/>
<path d="M136.979 150.327C137.385 150.022 137.487 149.311 137.284 149.007C136.776 148.296 135.964 147.89 135.456 148.296C135.05 148.6 134.847 149.717 135.253 150.225C135.456 150.53 136.573 150.631 136.979 150.327Z" fill="#00BFB3"/>
<path d="M133.324 136.821C133.527 136.72 133.527 136.314 133.425 136.212C133.324 136.111 132.918 135.806 132.715 135.908C132.511 136.009 132.613 136.517 132.715 136.618C132.816 136.821 133.121 137.025 133.324 136.821Z" fill="#00BFB3"/>
<path d="M130.988 134.587C130.684 134.689 130.684 134.892 130.684 134.994C130.785 135.197 130.887 135.501 131.191 135.501C131.496 135.501 131.496 134.994 131.394 134.892C131.394 134.689 131.293 134.486 130.988 134.587Z" fill="#00BFB3"/>
<path d="M123.677 133.775C123.169 133.877 122.865 133.572 122.459 133.369C122.256 133.267 121.849 133.47 121.646 133.673C121.443 133.877 121.443 134.283 121.545 134.587C121.646 134.79 121.951 134.892 122.256 134.892C122.763 134.892 123.169 134.79 123.677 134.689C124.083 134.587 124.185 134.384 124.083 133.877C123.88 133.978 123.779 133.775 123.677 133.775Z" fill="#00BFB3"/>
<path d="M125.403 130.627C125.302 130.119 124.591 129.713 124.083 129.815C123.576 129.916 123.373 130.424 123.474 130.932C123.576 131.44 124.083 131.846 124.489 131.744C124.896 131.643 125.403 130.932 125.403 130.627Z" fill="#00BFB3"/>
<path d="M122.154 142.305C122.458 142 122.052 140.985 121.748 140.68C121.545 140.477 120.935 140.274 120.529 140.578C120.224 140.883 120.428 141.594 120.631 141.898C120.834 142.203 121.748 142.609 122.154 142.305Z" fill="#00BFB3"/>
<path d="M109.156 134.587C109.258 134.689 109.359 134.689 109.461 134.79C109.359 134.993 109.258 135.298 109.359 135.603C109.461 136.517 110.476 137.43 111.39 137.227C112.203 137.126 113.015 136.009 112.913 135.196C112.812 134.486 112.101 133.978 111.187 133.876C111.289 133.47 111.187 133.064 110.984 132.861C110.883 132.759 110.679 132.658 110.476 132.658C109.969 132.963 109.461 133.369 108.852 133.673C108.852 134.08 108.953 134.384 109.156 134.587Z" fill="#00BFB3"/>
<path d="M131.597 141.695C132.105 141.492 132.308 141.086 132.308 140.68C132.308 140.375 132.308 139.665 131.902 139.36C131.496 139.055 131.191 138.548 130.684 138.649C130.277 138.751 130.176 138.852 129.973 139.055C129.871 139.258 129.567 139.36 129.567 139.766C129.465 140.172 129.668 140.985 130.074 141.391C130.582 141.797 131.09 141.898 131.597 141.695Z" fill="#00BFB3"/>
<path d="M134.441 146.062C134.948 146.265 135.659 146.671 135.964 145.96C136.167 145.554 136.065 145.249 135.964 145.148C135.964 144.945 135.862 144.843 135.761 144.64C135.659 144.539 135.558 144.437 135.456 144.437C135.761 144.437 135.964 144.234 135.964 143.523C135.964 142.914 135.761 142.508 135.05 142.406C134.847 142.406 134.745 142.406 134.542 142.406C134.644 142.102 134.745 141.797 134.542 141.492C134.339 141.086 133.527 140.883 133.121 141.188C132.715 141.492 132.715 142.203 133.222 142.914C133.324 142.914 133.527 143.015 133.73 143.015C133.628 143.219 133.527 143.422 133.527 143.625C133.425 144.437 133.831 144.539 133.73 145.046C133.73 145.554 134.035 145.757 134.441 146.062Z" fill="#00BFB3"/>
<path d="M129.161 145.148C128.958 145.148 128.754 145.25 128.754 145.555C128.754 145.859 128.856 145.961 129.161 145.961C129.466 145.961 129.567 145.859 129.567 145.555C129.567 145.25 129.466 145.148 129.161 145.148Z" fill="#00BFB3"/>
<path d="M127.84 141.695C128.145 141.492 128.145 140.578 127.84 140.274C127.536 139.868 127.028 139.766 126.622 140.071C126.216 140.375 126.114 140.883 126.419 141.188C126.723 141.695 127.536 142 127.84 141.695Z" fill="#00BFB3"/>
<path d="M144.29 138.345C144.29 138.04 143.884 137.735 143.58 137.431C143.478 137.329 143.275 137.126 143.072 137.329C142.767 137.532 142.666 138.446 143.072 138.751C143.478 139.055 144.189 138.954 144.29 138.345Z" fill="#00BFB3"/>
<path d="M152.008 138.548C152.414 138.243 152.617 137.431 152.414 137.126C152.109 136.72 151.195 136.618 150.891 136.923C150.485 137.228 150.485 137.837 150.789 138.243C150.992 138.649 151.602 138.751 152.008 138.548Z" fill="#00BFB3"/>
<path d="M126.013 142.609C125.809 142.812 125.809 143.015 125.911 143.219C126.013 143.422 126.419 143.523 126.622 143.422C126.825 143.32 126.825 142.914 126.622 142.812C126.52 142.508 126.216 142.406 126.013 142.609Z" fill="#00BFB3"/>
<path d="M138.299 143.726C138.705 144.335 139.518 144.538 139.924 144.132C140.33 143.726 140.533 143.117 140.533 142.508C140.635 142.711 140.939 142.812 141.041 142.812C141.244 142.711 141.549 142.711 141.447 142.406C141.346 142.101 141.142 142.101 141.041 142.101C140.838 142.101 140.432 142.203 140.432 142.508C140.432 142.305 140.33 142.101 140.229 141.898C139.924 141.492 139.01 141.391 138.604 141.797C137.893 142.305 137.792 143.117 138.299 143.726Z" fill="#00BFB3"/>
<path d="M135.659 140.172C136.269 140.274 136.979 140.477 137.589 140.071C137.69 139.868 137.69 139.665 137.792 139.461C137.893 139.563 138.096 139.665 138.299 139.563C138.502 139.461 138.401 139.157 138.299 138.954C138.807 138.649 139.112 138.141 139.01 137.735C138.909 137.329 138.604 137.126 138.198 137.126C137.385 137.126 137.182 137.329 136.979 138.243C136.472 138.548 135.862 138.751 135.456 139.157C134.948 139.36 135.152 140.071 135.659 140.172Z" fill="#00BFB3"/>
<path d="M111.187 140.883C111.289 141.391 111.796 141.594 112.203 141.492C112.71 141.289 113.015 140.781 112.913 140.375C112.913 140.274 112.812 140.172 112.71 140.071C112.812 139.766 112.812 139.461 112.507 139.157C112.101 138.649 111.492 138.649 111.086 139.055C110.781 139.36 110.679 140.071 110.984 140.375C110.984 140.375 111.086 140.477 111.187 140.477C111.187 140.578 111.187 140.781 111.187 140.883Z" fill="#00BFB3"/>
<path d="M117.28 134.384C117.178 133.572 116.366 132.963 115.655 133.064C114.944 133.166 114.335 134.181 114.538 135.197C114.64 135.907 115.249 136.314 116.061 136.212C116.975 136.009 117.483 135.298 117.28 134.384Z" fill="#00BFB3"/>
<path d="M105.095 141.391C105.501 141.797 106.618 141.797 107.125 141.391C107.532 141.086 107.43 140.071 107.125 139.563C106.821 139.157 106.008 139.055 105.704 139.36L105.602 139.461C105.602 139.36 105.704 139.157 105.704 139.055C105.805 138.547 104.688 138.04 103.876 138.344C103.368 138.547 103.165 138.954 103.267 139.36C103.368 139.969 103.876 140.68 104.384 140.68C104.688 140.68 104.891 140.578 104.993 140.477C104.79 140.883 104.891 141.188 105.095 141.391Z" fill="#00BFB3"/>
<path d="M105.907 136.11C106.313 136.009 106.821 135.4 106.719 134.994C106.719 134.994 106.719 134.994 106.719 134.892C106.11 135.197 105.602 135.501 104.993 135.806C105.298 136.11 105.602 136.212 105.907 136.11Z" fill="#00BFB3"/>
<path d="M101.439 137.837C101.845 138.141 102.353 138.141 102.658 137.735C102.861 137.431 103.064 137.126 103.064 136.923C102.454 137.227 101.845 137.431 101.337 137.735C101.337 137.735 101.337 137.837 101.439 137.837Z" fill="#00BFB3"/>
<path d="M115.046 142C114.437 142.305 114.64 142.812 114.843 143.32C115.554 143.523 115.96 143.32 116.264 142.609C116.061 142.102 115.655 141.594 115.046 142Z" fill="#00BFB3"/>
<path d="M116.061 139.258C115.858 138.954 115.452 138.852 115.147 139.157C114.843 139.462 114.64 139.766 114.944 140.172C115.147 140.477 116.163 140.375 116.264 140.071C116.366 139.766 116.264 139.563 116.061 139.258Z" fill="#00BFB3"/>
<path d="M153.429 134.08C153.125 133.673 152.719 133.673 152.414 133.978C152.109 134.181 152.008 134.587 152.211 134.892C152.414 135.298 152.82 135.4 153.226 135.197C153.633 134.993 153.734 134.384 153.429 134.08Z" fill="#00BFB3"/>
<path d="M123.576 144.336C122.763 144.437 122.56 144.843 122.662 145.757C122.763 146.569 123.271 146.976 123.779 146.874C124.286 146.773 125.099 145.757 124.997 145.249C124.997 144.539 124.388 144.234 123.576 144.336Z" fill="#00BFB3"/>
<path d="M124.083 154.185C123.576 153.779 122.763 154.185 122.459 154.693C122.357 154.896 122.255 155.302 122.357 155.607C121.951 155.708 121.646 156.013 121.545 156.318C122.357 156.419 123.271 156.419 124.185 156.419C124.591 156.115 124.591 155.708 124.489 155.302C124.489 154.896 124.591 154.49 124.083 154.185Z" fill="#00BFB3"/>
<path d="M121.545 153.576C121.443 153.373 121.138 153.17 120.834 153.373C120.529 153.576 120.631 153.881 120.732 154.084C120.834 154.287 121.139 154.693 121.545 154.49C121.951 154.287 121.646 153.678 121.545 153.576Z" fill="#00BFB3"/>
<path d="M116.772 153.881C116.975 153.678 117.077 153.271 116.975 152.967C116.874 152.459 116.366 152.154 115.858 152.256C115.351 152.357 115.046 152.967 115.147 153.474C115.147 153.576 115.147 153.576 115.249 153.678C115.147 153.678 115.046 153.779 114.944 153.779C114.64 153.576 114.132 153.576 113.726 153.881C113.421 154.185 113.32 154.49 113.421 154.794C114.538 155.201 115.757 155.505 116.975 155.81C117.178 155.404 117.28 154.998 117.178 154.693C117.178 154.287 116.975 154.084 116.772 153.881Z" fill="#00BFB3"/>
<path d="M126.114 149.311C126.216 149.413 126.419 149.616 126.622 149.717C126.622 149.819 126.622 149.819 126.622 149.819C126.723 149.92 126.825 150.022 126.927 149.92C127.028 149.92 127.028 149.819 127.028 149.717C127.942 149.717 128.551 149.21 128.754 148.093C128.45 147.89 128.247 147.483 127.942 147.28C127.434 146.976 126.927 146.976 126.52 147.28C126.317 147.28 126.114 147.28 125.911 147.28C125.81 147.382 125.81 147.483 125.708 147.483C125.607 147.991 125.708 148.093 125.911 148.397C125.81 148.6 125.81 149.007 126.114 149.311Z" fill="#00BFB3"/>
<path d="M117.991 149.514C118.701 149.311 119.209 148.397 119.108 147.585C119.006 147.28 118.803 146.976 118.6 146.671C118.6 146.468 118.498 146.265 118.397 146.062C118.092 145.757 117.381 145.757 117.077 146.062C116.975 146.163 116.975 146.163 116.874 146.265C116.366 146.468 115.96 146.976 115.757 147.483C114.944 147.686 114.335 148.6 114.538 149.311C114.741 150.428 115.655 151.037 116.671 150.834C117.381 150.631 117.787 150.225 117.889 149.514C117.889 149.514 117.889 149.514 117.991 149.514Z" fill="#00BFB3"/>
<path d="M118.092 153.982C117.483 154.287 117.28 154.693 117.889 155.302C118.498 155.911 119.514 155.099 119.412 154.693C119.412 154.287 118.498 153.678 118.092 153.982Z" fill="#00BFB3"/>
<path d="M121.849 152.764C122.56 152.662 123.068 151.85 122.865 151.139C122.458 149.819 122.052 149.819 120.732 149.92C119.92 150.022 119.412 150.936 119.615 151.748C119.717 152.459 120.834 152.967 121.849 152.764Z" fill="#00BFB3"/>
<path d="M119.818 142.812C119.717 142.406 119.311 142.305 118.803 142.508C118.092 142.812 117.787 143.219 117.889 143.523C117.991 143.929 118.904 144.336 119.311 144.132C119.717 144.031 119.92 143.219 119.818 142.812Z" fill="#00BFB3"/>
<path d="M126.825 137.431C126.723 136.821 125.81 136.415 124.997 136.618C124.286 136.821 123.982 137.329 124.185 138.243C124.286 138.751 124.997 139.157 125.505 139.055C126.114 139.055 126.927 137.938 126.825 137.431Z" fill="#00BFB3"/>
<path d="M152.109 140.68C151.703 140.985 151.297 140.883 150.891 140.883C150.688 140.883 150.383 141.289 150.281 141.492C150.18 141.797 150.383 142.102 150.586 142.305C150.688 142.406 151.094 142.406 151.297 142.305C151.601 142.102 152.008 141.898 152.312 141.695C152.515 141.492 152.617 141.289 152.719 140.985C152.719 140.883 152.617 140.781 152.515 140.68C152.414 140.781 152.211 140.68 152.109 140.68Z" fill="#00BFB3"/>
<path d="M147.54 138.649C146.93 138.954 146.727 139.766 147.032 140.172C147.337 140.578 148.251 140.883 148.657 140.578C149.165 140.274 149.165 139.36 148.657 138.751C148.352 138.446 147.946 138.446 147.54 138.649Z" fill="#00BFB3"/>
<path d="M154.039 137.938C153.531 138.344 153.429 138.852 153.836 139.36C154.14 138.852 154.445 138.344 154.648 137.837C154.343 137.735 154.14 137.837 154.039 137.938Z" fill="#00BFB3"/>
<path d="M129.567 153.373C130.176 152.967 130.277 152.358 129.973 151.85C129.567 151.342 128.856 151.037 128.348 151.139C128.044 150.834 127.637 150.631 127.231 150.631C126.114 150.631 125.81 151.444 125.606 152.154C125.505 152.764 125.81 154.084 127.028 153.982C127.536 153.982 128.044 153.779 128.348 153.576C128.856 153.678 129.262 153.576 129.567 153.373Z" fill="#00BFB3"/>
<path d="M146.93 144.945C146.93 144.64 146.829 144.234 146.626 143.828C146.22 143.219 145.204 142.914 144.595 143.32C143.986 143.726 143.884 144.945 144.392 145.757C144.798 146.366 145.509 146.468 146.22 146.062C146.22 146.062 146.321 146.062 146.321 145.96C146.321 146.062 146.423 146.163 146.524 146.265C146.829 146.468 147.438 146.366 147.641 146.062C147.743 145.757 147.54 145.046 146.93 144.945Z" fill="#00BFB3"/>
<path d="M128.043 156.318C128.754 156.216 129.567 156.115 130.277 156.013C129.973 155.911 129.668 155.81 129.363 155.81C128.856 155.81 128.348 156.013 128.043 156.318Z" fill="#00BFB3"/>
<path d="M136.878 152.256C136.776 152.459 136.776 152.662 136.776 152.865C136.471 152.967 136.268 153.068 136.065 153.271C135.964 153.373 135.964 153.373 135.964 153.474C135.761 152.865 135.05 152.56 134.745 151.951C134.238 150.631 133.324 150.428 132.41 150.733C132.41 150.733 132.511 150.733 132.511 150.631C132.816 150.326 132.613 149.616 132.511 149.311C132.308 149.006 131.902 149.006 131.496 149.209C131.394 149.108 131.293 149.006 131.09 149.006C130.684 149.006 130.277 149.514 130.277 150.123C130.481 150.225 130.887 150.428 131.191 150.428C131.394 150.428 131.496 150.326 131.597 150.326C131.801 150.53 132.105 150.733 132.41 150.631C132.105 150.733 131.801 150.834 131.597 151.037C131.191 151.24 130.988 151.647 130.785 152.053C130.582 152.56 130.684 153.17 130.988 153.677C131.293 154.287 131.09 154.896 131.597 155.302C131.699 155.302 131.699 155.404 131.801 155.404V155.505C133.222 155.201 134.542 154.794 135.964 154.287C135.964 154.287 135.964 154.185 136.065 154.185V154.287C136.878 153.982 137.69 153.677 138.502 153.271C138.604 152.967 138.705 152.56 138.604 152.357C138.096 151.951 137.487 152.053 136.878 152.256Z" fill="#00BFB3"/>
<path d="M145.001 148.499C144.595 147.89 143.783 147.483 143.173 147.686C143.173 147.28 143.173 146.874 142.97 146.468C142.564 145.757 141.549 145.656 140.635 146.163C140.533 145.96 140.33 145.757 139.822 145.554C139.112 145.757 139.112 146.671 139.518 146.874C139.619 146.976 139.721 146.976 139.822 146.976C139.619 147.382 139.619 147.89 139.924 148.397C140.229 149.007 141.041 149.311 141.752 149.311C141.65 149.514 141.752 149.92 141.955 150.124C142.26 150.53 142.666 150.834 143.072 150.834C143.884 150.327 144.697 149.717 145.509 149.007C145.407 149.007 145.407 149.007 145.306 149.007C145.204 148.803 145.103 148.702 145.001 148.499Z" fill="#00BFB3"/>
<path d="M139.619 151.444C139.213 151.748 139.112 152.357 139.416 152.764C139.416 152.865 139.518 152.865 139.619 152.967C140.127 152.764 140.533 152.459 141.041 152.154C141.041 152.053 141.041 151.85 140.939 151.748C140.533 151.24 140.025 151.139 139.619 151.444Z" fill="#00BFB3"/>
<path d="M90.2694 120.268C90.2694 120.167 90.2694 120.066 90.2694 119.864C90.3705 119.965 90.3705 120.066 90.2694 120.268Z" fill="#00BFB3"/>
<path d="M103.369 95.5947C103.166 95.6963 102.962 95.8996 102.759 96.0012C102.962 95.8996 103.166 95.7979 103.369 95.5947Z" fill="#00BFB3"/>
<path d="M114.335 152.357C114.741 151.647 114.741 151.139 114.03 150.733C113.726 150.53 113.218 150.428 112.812 150.327C112.812 150.123 112.812 149.819 112.812 149.616C112.812 149.21 112.609 148.803 112.203 148.702C111.695 148.499 111.187 148.803 110.883 149.108C110.68 149.311 110.578 149.514 110.578 149.819C110.273 149.514 109.867 149.311 109.461 149.514C109.055 149.616 108.75 150.022 108.852 150.428C108.953 150.733 109.258 151.24 109.563 151.342C110.273 151.545 110.781 151.037 110.883 150.428C111.086 150.733 111.187 151.037 111.187 151.444C111.187 151.647 111.593 151.951 111.797 152.053C112.203 152.256 112.609 152.459 113.015 152.662C113.421 153.068 114.03 152.865 114.335 152.357Z" fill="#00BFB3"/>
<path d="M106.415 145.554C106.415 145.249 106.618 145.046 106.922 145.046C107.43 145.046 108.039 144.437 107.938 143.422C107.836 142.406 106.618 141.695 106.009 142.203C105.399 142.711 105.501 143.219 105.298 143.117C104.993 143.117 104.485 142.711 104.079 143.117C103.876 143.32 103.978 144.132 104.181 144.64C103.876 144.539 103.47 144.64 103.267 144.843C102.962 145.249 102.962 145.757 103.368 146.163C103.775 146.468 104.181 146.468 104.485 146.163C104.688 145.96 104.79 145.656 104.688 145.351C104.993 145.452 105.196 145.656 105.095 146.062C104.892 146.569 104.282 146.874 104.384 147.483C104.485 148.093 104.688 149.311 105.501 149.616C106.313 149.819 106.313 149.006 106.719 148.702C106.922 148.499 107.126 148.194 107.227 147.89C107.227 147.89 107.329 147.89 107.329 147.788C107.735 147.382 107.938 146.163 107.633 145.757C107.43 145.351 106.922 145.249 106.415 145.554Z" fill="#00BFB3"/>
<path d="M94.4324 138.852C94.5341 139.055 94.6358 139.259 94.7374 139.462C94.6358 139.259 94.5341 139.055 94.4324 138.852Z" fill="#00BFB3"/>
<path d="M109.461 152.865C109.359 152.865 109.258 152.967 109.258 152.967C110.273 153.474 111.289 153.881 112.304 154.287V154.185C111.898 153.17 110.172 152.662 109.461 152.865Z" fill="#00BFB3"/>
<path d="M106.719 149.007C106.618 149.21 106.618 149.616 106.821 149.819C106.922 150.022 107.532 150.327 107.836 150.124C108.141 149.921 107.938 149.311 107.836 149.108C107.532 148.702 106.922 148.702 106.719 149.007Z" fill="#00BFB3"/>
<path d="M107.836 138.243C107.329 138.344 107.024 138.852 107.126 139.36C107.227 139.766 107.633 140.071 108.141 139.969C108.649 139.868 108.953 139.563 108.852 139.055C108.75 138.548 108.344 138.141 107.836 138.243Z" fill="#00BFB3"/>
<path d="M100.119 144.64C99.7127 144.64 99.3066 144.945 99.1035 145.351C99.6112 145.859 100.119 146.366 100.627 146.874C101.134 146.671 101.541 146.265 101.439 145.757C101.338 145.148 100.627 144.539 100.119 144.64Z" fill="#00BFB3"/>
<path d="M101.845 141.188C101.541 140.883 101.033 140.68 100.627 140.68C100.424 140.375 100.22 140.172 100.322 140.071C100.424 139.868 100.931 139.157 100.322 138.751C99.1035 137.938 98.5958 139.157 98.1896 139.055C98.0881 139.055 97.9865 138.954 97.9865 138.954C96.9711 139.258 96.0572 139.665 95.0417 139.969C95.4479 140.68 95.9557 141.391 96.3618 142.102C96.5649 142 96.6665 141.899 96.8695 141.797C97.2757 141.391 97.4788 140.985 97.3773 140.477C97.4788 140.477 97.5803 140.477 97.6819 140.578C98.3927 141.188 97.5803 141.492 98.5958 142.203C98.9004 142.406 99.205 142.508 99.5097 142.508C99.5097 142.812 99.6112 143.015 99.7128 143.117C100.119 143.625 101.033 143.625 101.642 143.117C102.15 142.711 102.251 141.695 101.845 141.188Z" fill="#00BFB3"/>
<path d="M102.657 147.179C102.251 147.077 101.947 147.585 102.048 147.991C102.048 148.093 102.048 148.296 102.15 148.296C102.251 148.397 102.353 148.499 102.454 148.499C102.556 148.499 102.658 148.6 102.861 148.499C103.165 148.397 103.673 148.194 103.571 147.788C103.47 147.382 102.962 147.28 102.657 147.179Z" fill="#00BFB3"/>
<path d="M74.8028 182.187H69.3195V178.227H74.8028V172.845H78.763V178.227H84.2463V182.187H78.763V187.468H74.8028V182.187Z" fill="#FFC200"/>
<path d="M68.628 88.0324C68.8517 87.9185 69.1684 87.0184 69.1249 86.7942C69.1249 86.7942 69.0813 86.5701 68.9477 86.515C68.724 86.6289 68.2766 86.8567 68.0529 86.9706C67.9629 87.1396 67.9629 87.1396 67.8728 87.3086C67.8262 87.7018 68.3142 88.3154 68.628 88.0324Z" fill="#98A2B3" fill-opacity="0.25"/>
<path d="M65.866 78.4852C66.0891 78.3716 66.1355 77.9793 66.1355 77.9793C66.0921 77.7557 65.9589 77.7007 65.7358 77.8143C65.5127 77.928 65.3331 78.2652 65.3765 78.4889C65.4199 78.7125 65.7762 78.6538 65.866 78.4852Z" fill="#98A2B3" fill-opacity="0.25"/>
<path d="M67.7311 97.4233C68.6301 97.5861 69.7606 96.3913 70.2615 95.1446C70.5809 94.2383 70.2676 93.9017 69.5941 93.6243C68.5604 93.406 67.3421 94.1495 67.0228 95.0558C66.6595 95.7364 67.0576 97.1458 67.7311 97.4233Z" fill="#98A2B3" fill-opacity="0.25"/>
<path d="M42.9332 111.823C43.6692 111.927 44.6704 110.931 45.2401 109.554C45.46 108.838 45.4629 108.234 45.2486 107.742C46.2046 107.13 46.7292 106.138 46.6474 105.095C46.4359 103.999 45.4856 103.402 44.8341 103.736C43.7484 104.294 42.8741 105.948 42.8684 107.156C42.217 107.49 41.6953 107.878 41.4753 108.594C40.9056 109.971 41.7206 111.722 42.9332 111.823Z" fill="#98A2B3" fill-opacity="0.25"/>
<path d="M45.4765 114.878C46.3832 114.417 46.9749 113.618 46.9339 112.767C46.8016 112.087 46.2159 111.637 45.4918 111.756C44.6764 112.046 43.9933 113.016 44.0344 113.867C44.2108 114.774 44.6611 115.168 45.4765 114.878Z" fill="#98A2B3" fill-opacity="0.25"/>
<path d="M60.3534 90.9029C60.4842 91.5761 61.2871 91.9073 62.1833 91.4511C63.0794 90.995 63.3967 90.0937 63.2222 89.1961C63.135 88.7473 62.9576 88.4677 62.7801 88.1881C62.3321 88.4162 61.7502 88.5891 61.3021 88.8171C60.7172 89.608 60.2662 90.4541 60.3534 90.9029Z" fill="#98A2B3" fill-opacity="0.25"/>
<path d="M66.541 100.808C66.7698 100.691 67.0461 100.174 67.0937 99.7731C67.0492 99.5445 66.7314 99.2034 66.3661 99.2633C66.1373 99.3795 65.3591 99.9005 65.4481 100.358C65.6737 100.871 66.3123 100.924 66.541 100.808Z" fill="#98A2B3" fill-opacity="0.25"/>
<path d="M49.6992 111.918C50.16 111.055 49.753 110.256 48.8406 110.091C48.0649 109.982 47.4229 110.56 47.0543 111.25C46.7302 112.169 46.8638 112.855 47.6395 112.964C48.4597 113.302 49.3751 112.837 49.6992 111.918Z" fill="#98A2B3" fill-opacity="0.25"/>
<path d="M61.6385 107.146C62.1716 107.366 62.841 107.025 63.2902 106.182C63.9192 105.001 63.9686 103.993 63.6586 103.659C63.1254 103.439 61.6534 104.066 61.2041 104.909C60.7115 105.529 60.9721 106.871 61.6385 107.146Z" fill="#98A2B3" fill-opacity="0.25"/>
<path d="M77.4483 127.858C77.7663 127.572 78.2669 126.943 78.3141 126.546C78.5439 125.806 77.4605 125.36 76.9158 125.761C76.5977 126.048 76.3239 126.561 76.0059 126.847C76.2265 127.98 76.8122 128.43 77.4483 127.858Z" fill="#98A2B3" fill-opacity="0.25"/>
<path d="M79.6986 136.401C80.5145 136.111 81.2893 134.969 81.2924 134.345C81.2543 132.869 80.5358 131.738 79.4931 132.143C78.6772 132.433 77.4016 134.203 77.4868 135.282C77.4838 135.906 78.8827 136.691 79.6986 136.401Z" fill="#98A2B3" fill-opacity="0.25"/>
<path d="M84.0436 113.263C84.4023 113.204 84.7641 112.526 84.7203 112.301C84.6766 112.076 84.4113 111.346 84.0526 111.405C83.6939 111.464 83.3759 112.367 83.4197 112.592C83.3729 112.986 83.5945 113.491 84.0436 113.263Z" fill="#98A2B3" fill-opacity="0.25"/>
<path d="M80.2291 102.506C79.7391 102.51 79.5594 102.847 79.4695 103.016C79.423 103.408 79.2867 103.97 79.6867 104.135C80.0868 104.3 80.5363 103.456 80.4928 103.232C80.6726 102.895 80.7191 102.502 80.2291 102.506Z" fill="#98A2B3" fill-opacity="0.25"/>
<path d="M71.6839 101.488C70.8836 101.376 70.7457 100.664 70.3717 100.073C70.1847 99.7771 69.4303 99.9016 68.9581 100.143C68.4858 100.384 68.1054 101.099 67.9612 101.695C67.912 102.111 68.2401 102.465 68.6632 102.64C69.3685 102.931 70.0277 102.986 70.8281 103.099C71.4874 103.153 71.8186 102.853 72.153 101.901C71.7758 101.963 71.825 101.547 71.6839 101.488Z" fill="#98A2B3" fill-opacity="0.25"/>
<path d="M76.4504 97.9706C76.7717 97.0592 76.1885 95.9841 75.4194 95.8762C74.6504 95.7683 73.9224 96.5123 73.601 97.4237C73.2797 98.3351 73.5918 99.2987 74.2254 99.3507C74.8589 99.4028 76.1762 98.484 76.4504 97.9706Z" fill="#98A2B3" fill-opacity="0.25"/>
<path d="M62.9708 113.548C63.6489 113.203 64.019 111.276 63.887 110.597C63.799 110.145 63.171 109.471 62.358 109.76C61.68 110.104 61.3129 111.409 61.3099 112.032C61.3069 112.654 62.1578 113.837 62.9708 113.548Z" fill="#98A2B3" fill-opacity="0.25"/>
<path d="M49.5076 92.7477C49.5513 92.9727 49.6856 93.028 49.7293 93.253C49.4141 93.537 49.0084 93.9906 48.8712 94.5548C48.1911 96.1369 48.719 98.217 50.108 98.3756C51.2722 98.6486 53.3414 97.2251 53.931 95.8126C54.4302 94.5698 53.943 93.3343 52.8255 92.6667C53.3216 92.0435 53.5494 91.3096 53.4619 90.8597C53.4182 90.6347 53.2402 90.3544 52.9717 90.2437C52.0292 90.4761 50.9961 90.878 49.9193 91.055C49.5573 91.7336 49.4201 92.2978 49.5076 92.7477Z" fill="#98A2B3" fill-opacity="0.25"/>
<path d="M77.6657 119.51C78.5169 119.448 79.1467 118.88 79.5083 118.202C79.7795 117.694 80.4123 116.507 80.1471 115.778C79.882 115.048 79.9317 114.035 79.1708 113.928C78.544 113.876 78.3195 113.99 77.8706 114.219C77.5557 114.503 77.063 114.506 76.7014 115.184C76.2057 115.807 75.7507 117.274 75.9255 118.173C76.2344 119.127 76.8144 119.573 77.6657 119.51Z" fill="#98A2B3" fill-opacity="0.25"/>
<path d="M78.8936 128.34C79.3684 128.942 79.928 129.982 80.9313 128.985C81.5418 128.43 81.6747 127.879 81.6323 127.66C81.8075 127.329 81.7651 127.109 81.8104 126.724C81.768 126.504 81.7256 126.284 81.5956 126.23C81.9856 126.392 82.4209 126.169 83.0342 125.01C83.5599 124.016 83.6504 123.245 82.8279 122.702C82.5679 122.594 82.4379 122.54 82.1779 122.432C82.5707 121.989 82.9636 121.546 82.9664 120.941C83.0569 120.171 82.1921 119.407 81.4092 119.688C80.6263 119.969 80.0129 121.128 80.0496 122.558C80.1797 122.612 80.352 122.885 80.6121 122.993C80.3068 123.271 80.0016 123.548 79.8263 123.879C78.9954 125.15 79.4278 125.532 78.8597 126.306C78.4216 127.134 78.6364 127.627 78.8936 128.34Z" fill="#98A2B3" fill-opacity="0.25"/>
<path d="M71.9502 122.823C71.6791 122.711 71.3165 122.771 71.0423 123.284C70.7681 123.798 70.8123 124.025 71.219 124.192C71.6257 124.36 71.8526 124.244 72.1268 123.731C72.401 123.217 72.3569 122.99 71.9502 122.823Z" fill="#98A2B3" fill-opacity="0.25"/>
<path d="M72.0737 116.724C72.6608 116.55 73.4799 115.016 73.348 114.337C73.307 113.488 72.723 113.04 71.9099 113.329C71.0968 113.618 70.5067 114.415 70.6386 115.093C70.5886 116.113 71.3956 117.069 72.0737 116.724Z" fill="#98A2B3" fill-opacity="0.25"/>
<path d="M99.5274 123.343C99.7989 122.834 99.5335 122.104 99.4022 121.429C99.3585 121.204 99.271 120.754 98.8215 120.983C98.2378 121.156 97.289 122.628 97.5545 123.358C97.8199 124.088 98.8502 124.306 99.5274 123.343Z" fill="#98A2B3" fill-opacity="0.25"/>
<path d="M111.041 129.345C111.858 129.054 112.861 127.796 112.865 127.17C112.823 126.318 111.694 125.644 111.012 125.99C110.195 126.28 109.646 127.308 109.687 128.161C109.593 128.958 110.316 129.464 111.041 129.345Z" fill="#98A2B3" fill-opacity="0.25"/>
<path d="M69.0447 116.768C68.5919 116.998 68.4096 117.34 68.3624 117.737C68.3153 118.134 68.765 118.528 69.1267 118.468C69.4883 118.409 69.853 117.726 69.6738 117.444C69.8121 116.876 69.4976 116.538 69.0447 116.768Z" fill="#98A2B3" fill-opacity="0.25"/>
<path d="M86.8355 127.677C86.8293 128.949 87.7466 129.751 88.6702 129.282C89.5938 128.813 90.4275 127.882 90.9854 126.837C90.9374 127.242 91.2581 127.586 91.3961 127.643C91.7649 127.583 92.1786 127.753 92.3197 127.174C92.4607 126.595 92.1849 126.481 92.047 126.424C91.7711 126.311 91.1265 126.258 90.8475 126.78C91.0335 126.432 91.0815 126.027 91.1296 125.622C91.0878 124.755 89.9395 124.07 89.0159 124.539C87.5856 125.012 86.7038 126.349 86.8355 127.677Z" fill="#98A2B3" fill-opacity="0.25"/>
<path d="M85.2571 120.519C85.9903 121.033 86.7684 121.777 87.9656 121.422C88.2889 121.131 88.4746 120.784 88.7979 120.493C88.8427 120.723 89.0252 121.01 89.3934 120.95C89.7616 120.89 89.9023 120.312 89.9503 119.907C90.9171 119.669 91.7942 118.971 92.0278 118.219C92.2614 117.467 92.034 116.949 91.4833 116.723C90.3819 116.269 89.921 116.504 88.8103 117.954C87.8435 118.192 86.8319 118.2 85.9099 118.668C85.036 118.732 84.6616 120.062 85.2571 120.519Z" fill="#98A2B3" fill-opacity="0.25"/>
<path d="M47.6886 103.739C47.374 104.634 47.8586 105.245 48.4789 105.296C49.3213 105.234 50.1667 104.558 50.3918 103.831C50.4813 103.662 50.438 103.44 50.3948 103.217C50.7958 102.767 51.0642 102.263 50.9344 101.594C50.8509 100.535 50.0546 100.206 49.166 100.659C48.4995 100.999 47.7407 102.12 47.8704 102.789C47.8704 102.789 47.9137 103.012 48.0464 103.067C47.9569 103.235 47.778 103.571 47.6886 103.739Z" fill="#98A2B3" fill-opacity="0.25"/>
<path d="M61.355 97.7531C61.9449 96.34 61.4138 94.879 60.3833 94.6613C59.3528 94.4436 57.6418 95.8087 57.0051 97.6165C56.5058 98.8598 56.9493 99.8707 58.1141 100.144C59.5037 100.302 60.8088 99.3911 61.355 97.7531Z" fill="#98A2B3" fill-opacity="0.25"/>
<path d="M37.8165 100.221C37.9958 101.142 39.5095 101.765 40.5686 101.354C41.3973 101.059 42.1874 99.2656 42.2385 98.2272C42.1967 97.3625 41.1887 96.7357 40.4976 97.0868L40.2672 97.2039C40.3599 97.0302 40.6831 96.7394 40.7759 96.5657C41.3773 95.7539 40.3276 94.2624 38.9484 94.3303C38.0749 94.3945 37.4286 94.976 37.1951 95.7274C36.7761 96.8261 36.8147 98.3252 37.5027 98.6084C37.9155 98.7783 38.2835 98.7179 38.5139 98.6009C37.8676 99.1824 37.7268 99.7601 37.8165 100.221Z" fill="#98A2B3" fill-opacity="0.25"/>
<path d="M42.9539 92.6017C43.6037 92.6552 44.8613 91.8876 45.0972 91.1275C45.0972 91.1275 45.0972 91.1275 45.1909 90.9519C44.0755 91.1351 43.0992 91.3757 41.9838 91.559C42.1197 92.2579 42.4431 92.6055 42.9539 92.6017Z" fill="#98A2B3" fill-opacity="0.25"/>
<path d="M35.0944 92.0869C35.3712 92.8495 36.0712 93.1384 36.8688 92.6031C37.432 92.1872 37.9952 91.7712 38.1839 91.4169C37.0607 91.6017 36.0319 91.6094 35.0487 91.852C35.0487 91.852 34.9543 92.0291 35.0944 92.0869Z" fill="#98A2B3" fill-opacity="0.25"/>
<path d="M52.9074 107.939C51.8152 108.119 51.6285 109.09 51.4418 110.061C52.2113 110.797 52.9395 110.678 53.9905 109.643C54.1771 108.672 54.0915 107.588 52.9074 107.939Z" fill="#98A2B3" fill-opacity="0.25"/>
<path d="M56.2169 104.393C56.2199 103.763 55.7658 103.366 55.08 103.715C54.3942 104.063 53.8449 104.467 53.8863 105.325C53.8833 105.955 55.3408 106.344 55.7535 105.884C56.1663 105.423 56.2138 105.022 56.2169 104.393Z" fill="#98A2B3" fill-opacity="0.25"/>
<path d="M116.623 123.35C116.582 122.5 116.041 122.277 115.361 122.622C114.773 122.797 114.272 123.424 114.269 124.049C114.175 124.843 114.625 125.237 115.349 125.118C116.073 125 116.755 124.03 116.623 123.35Z" fill="#98A2B3" fill-opacity="0.25"/>
<path d="M64.2554 117.491C63.0874 117.217 62.455 117.787 61.7726 119.373C61.181 120.79 61.4912 121.748 62.2553 121.855C63.0194 121.962 65.0044 120.705 65.3236 119.799C65.9591 118.608 65.4235 117.765 64.2554 117.491Z" fill="#98A2B3" fill-opacity="0.25"/>
<path d="M57.7243 132.59C57.4064 131.609 55.9303 131.851 55.0512 132.551C54.7271 132.843 54.217 133.483 54.0759 134.063C53.4309 134.009 52.7379 134.362 52.3208 134.827C53.3317 135.456 54.5737 135.968 55.8156 136.479C56.6467 136.184 57.0188 135.487 57.2529 134.733C57.625 134.036 58.1351 133.396 57.7243 132.59Z" fill="#98A2B3" fill-opacity="0.25"/>
<path d="M54.2595 130.098C54.3062 129.703 54.0844 129.198 53.5005 129.371C52.9166 129.545 52.7793 130.109 52.7325 130.504C52.6857 130.899 52.7265 131.744 53.4447 131.626C54.1629 131.508 54.3032 130.323 54.2595 130.098Z" fill="#98A2B3" fill-opacity="0.25"/>
<path d="M46.5788 126.979C47.0354 126.747 47.5395 126.115 47.6789 125.542C48.0022 124.626 47.5962 123.829 46.8225 123.72C46.0488 123.612 45.0881 124.476 44.7648 125.393C44.6729 125.565 44.6729 125.565 44.7173 125.793C44.581 125.737 44.3527 125.853 44.2163 125.797C43.9911 125.284 43.3093 125.003 42.4881 125.295C41.8032 125.643 41.3911 126.103 41.2517 126.676C42.3839 127.981 43.7444 129.171 45.105 130.361C45.7454 129.785 46.2495 129.152 46.3889 128.58C46.7566 127.892 46.6677 127.435 46.5788 126.979Z" fill="#98A2B3" fill-opacity="0.25"/>
<path d="M64.308 127.345C64.3523 127.573 64.4411 128.029 64.6217 128.313C64.5299 128.485 64.5299 128.485 64.5299 128.485C64.5742 128.713 64.6186 128.941 64.8467 128.825C64.9829 128.881 65.0747 128.709 65.1666 128.537C66.3926 129.042 67.6691 128.518 68.9518 126.739C68.7268 126.227 68.8217 125.427 68.5967 124.915C68.1911 124.119 67.51 123.839 66.6896 124.13C66.4172 124.018 66.1447 123.906 65.8723 123.794C65.6442 123.91 65.5524 124.082 65.4162 124.026C64.8208 124.829 64.8651 125.057 64.862 125.685C64.5421 125.973 64.1748 126.661 64.308 127.345Z" fill="#98A2B3" fill-opacity="0.25"/>
<path d="M51.3626 121.477C52.4864 121.525 53.9763 120.272 54.5676 118.856C54.7053 118.29 54.7083 117.669 54.7113 117.048C54.8928 116.708 54.9397 116.312 54.9866 115.916C54.855 115.24 53.9127 114.851 53.2366 115.195C53.0112 115.31 53.0112 115.31 52.7858 115.424C51.9312 115.487 50.939 116.116 50.216 116.855C48.9575 116.752 47.3331 117.95 46.967 119.251C46.238 121.233 46.9051 122.752 48.4327 122.967C49.5566 123.015 50.458 122.557 51.2279 121.421C51.2279 121.421 51.2279 121.421 51.3626 121.477Z" fill="#98A2B3" fill-opacity="0.25"/>
<path d="M48.9425 128.273C47.8411 128.454 47.1963 129.034 47.4646 130.412C47.733 131.791 49.8462 130.97 50.0792 130.22C50.4494 129.527 49.7692 127.979 48.9425 128.273Z" fill="#98A2B3" fill-opacity="0.25"/>
<path d="M54.9404 129.362C55.9919 129.584 57.4159 128.482 57.7885 127.159C58.4413 124.686 57.8932 124.46 56.0197 123.9C54.8312 123.622 53.3148 124.896 52.8498 126.392C52.3402 127.659 53.3855 129.144 54.9404 129.362Z" fill="#98A2B3" fill-opacity="0.25"/>
<path d="M59.3053 112.395C59.5373 111.648 59.0826 111.251 58.2147 111.314C56.9812 111.438 56.2023 111.959 56.0626 112.533C55.8306 113.28 56.6924 114.476 57.4236 114.356C58.0626 114.409 59.0734 113.141 59.3053 112.395Z" fill="#98A2B3" fill-opacity="0.25"/>
<path d="M73.7126 109.213C74.1281 108.124 73.268 106.93 71.9924 106.825C70.8533 106.776 69.9841 107.469 69.4291 109.131C69.1056 110.048 69.6928 111.13 70.467 111.238C71.2857 111.575 73.3891 110.131 73.7126 109.213Z" fill="#98A2B3" fill-opacity="0.25"/>
<path d="M109.993 132.308C109.153 132.607 108.689 132.2 108.131 131.97C107.852 131.855 107.058 132.388 106.73 132.683C106.308 133.155 106.305 133.799 106.396 134.267C106.442 134.501 107 134.731 107.373 134.67C107.979 134.49 108.725 134.367 109.332 134.187C109.799 133.949 110.126 133.654 110.548 133.182C110.642 133.006 110.597 132.772 110.551 132.538C110.318 132.657 110.133 132.365 109.993 132.308Z" fill="#98A2B3" fill-opacity="0.25"/>
<path d="M104.681 126.14C103.596 126.318 102.595 127.574 102.636 128.425C102.677 129.275 103.621 130.29 104.437 130C105.387 129.766 106.208 128.228 106.079 126.924C105.946 126.244 105.405 126.021 104.681 126.14Z" fill="#98A2B3" fill-opacity="0.25"/>
<path d="M114.917 129.749C113.907 130.144 113.334 130.923 113.416 131.974C114.252 131.303 115.088 130.633 115.793 129.908C115.487 129.579 115.137 129.637 114.917 129.749Z" fill="#98A2B3" fill-opacity="0.25"/>
<path d="M66.1147 135.623C67.322 135.265 68.0223 134.27 68.0738 133.221C67.9865 132.115 67.2956 131.189 66.5079 131.078C66.3722 130.381 66.0041 129.801 65.4488 129.572C63.9217 128.943 62.7565 130.175 61.8238 131.288C61.1234 132.283 60.3232 134.734 62.0826 135.245C62.7767 135.531 63.658 135.467 64.2617 135.287C64.8622 135.749 65.5111 135.802 66.1147 135.623Z" fill="#98A2B3" fill-opacity="0.25"/>
<path d="M98.7675 135.203C99.044 134.685 99.2761 133.938 99.3713 133.135C99.3775 131.875 98.2867 130.794 97.0975 131.147C95.9082 131.5 94.6652 133.514 94.6114 135.176C94.6052 136.437 95.4702 137.003 96.7962 136.707C96.7962 136.707 96.9329 136.763 97.0251 136.591C96.9329 136.763 96.9775 136.992 97.022 137.221C97.2479 137.735 98.1605 137.9 98.7106 137.495C99.1239 137.033 99.4957 135.713 98.7675 135.203Z" fill="#98A2B3" fill-opacity="0.25"/>
<path d="M62.1617 139.243C63.2973 139.493 64.581 139.807 65.7166 140.057C65.3723 139.671 65.028 139.285 64.584 139.094C63.8441 138.776 62.9047 138.848 62.1617 139.243Z" fill="#98A2B3" fill-opacity="0.25"/>
<path d="M78.107 138.838C77.7823 139.13 77.5958 139.479 77.4093 139.829C76.9012 139.832 76.5314 139.893 76.0684 140.129C75.8368 140.246 75.8369 140.246 75.7436 140.421C76.0265 139.259 75.3381 138.337 75.4827 137.118C76.0033 134.563 74.9452 133.701 73.4209 133.713C73.4209 133.713 73.5591 133.77 73.6523 133.595C74.3469 133.242 74.723 131.906 74.8644 131.325C74.8675 130.687 74.3144 130.459 73.5748 130.581C73.5297 130.349 73.4846 130.118 73.2081 130.004C72.6549 129.776 71.6356 130.421 71.0762 131.469C71.2595 131.758 71.6262 132.335 72.0411 132.505C72.3176 132.619 72.5492 132.502 72.6875 132.559C72.7776 133.022 73.006 133.542 73.5141 133.538C73.006 133.542 72.4979 133.546 72.0348 133.781C71.2952 133.902 70.6457 134.487 69.9962 135.072C69.2534 135.831 68.8323 136.936 68.781 137.98C68.6364 139.198 67.8005 140.132 68.119 141.115C68.2572 141.172 68.164 141.347 68.3023 141.404L68.2091 141.578C70.4248 141.852 72.5955 141.894 74.9978 141.818C74.9978 141.818 75.0909 141.643 75.2292 141.7L75.136 141.875C76.522 141.806 77.9081 141.738 79.3873 141.495C79.8053 141.028 80.3165 140.387 80.3647 139.981C80.0462 138.997 79.1232 138.83 78.107 138.838Z" fill="#98A2B3" fill-opacity="0.25"/>
<path d="M93.0169 138.985C93.0231 137.718 92.2943 136.572 91.2844 136.579C91.655 135.885 92.0256 135.192 92.1214 134.385C92.2203 132.944 90.9386 132.205 89.2384 132.563C89.2863 132.16 89.1967 131.7 88.6949 131.07C87.5475 131.021 86.7137 132.582 87.0781 133.155C87.1229 133.385 87.2603 133.442 87.3977 133.498C86.7522 134.079 86.2889 134.946 86.238 135.983C86.0943 137.194 86.9158 138.167 87.8778 138.563C87.5551 138.853 87.3219 139.604 87.4115 140.064C87.4531 140.927 87.7249 141.674 88.2746 141.9C89.8374 141.485 91.4928 140.897 93.2408 140.135C93.1034 140.079 93.1034 140.079 92.9659 140.022C93.0138 139.619 92.969 139.389 93.0169 138.985Z" fill="#98A2B3" fill-opacity="0.25"/>
<path d="M83.4434 139.921C82.6228 140.212 81.9354 141.188 81.9768 142.044C81.8849 142.216 82.0211 142.272 82.0655 142.5C82.9305 142.437 83.7512 142.145 84.7081 141.91C84.7999 141.738 84.9836 141.394 84.9392 141.166C84.8535 140.082 84.264 139.629 83.4434 139.921Z" fill="#98A2B3" fill-opacity="0.25"/>
<path d="M30.7273 57.235C30.8068 57.077 30.8864 56.919 31.0455 56.603C31.084 56.8124 31.0044 56.9704 30.7273 57.235Z" fill="#98A2B3" fill-opacity="0.25"/>
<path d="M68.3193 29.0922C67.9453 29.1537 67.4771 29.3921 67.1031 29.4536C67.4771 29.3921 67.851 29.3306 68.3193 29.0922Z" fill="#98A2B3" fill-opacity="0.25"/>
<path d="M43.4866 123.119C44.6974 122.12 45.1655 121.243 44.568 120.14C44.3386 119.618 43.7379 119.156 43.276 118.752C43.4633 118.401 43.7441 117.875 43.9314 117.524C44.3059 116.822 44.4026 116.006 43.9408 115.602C43.4337 114.965 42.4585 115.205 41.7611 115.56C41.2961 115.796 40.97 116.09 40.6891 116.616C40.5534 115.918 40.1852 115.338 39.4425 115.46C38.7934 115.407 38.0023 115.937 37.7667 116.696C37.6247 117.28 37.5732 118.328 37.8962 118.676C38.681 119.427 39.8434 118.836 40.544 117.84C40.5409 118.481 40.3988 119.065 40.0244 119.766C39.8371 120.117 40.1117 120.873 40.2958 121.162C40.6641 121.742 41.0323 122.322 41.4005 122.902C41.5815 123.832 42.6019 123.825 43.4866 123.119Z" fill="#98A2B3" fill-opacity="0.25"/>
<path d="M36.9025 106.974C37.1666 106.475 37.6038 106.251 37.9956 106.414C38.6486 106.685 39.9603 106.013 40.7099 104.297C41.4594 102.582 40.5084 100.769 39.2847 101.275C38.0611 101.78 37.7516 102.665 37.5784 102.39C37.1866 102.228 36.8856 101.293 36.0112 101.74C35.574 101.964 35.0004 103.348 34.8215 104.287C34.5177 103.958 33.9073 103.907 33.4701 104.131C32.7262 104.633 32.2862 105.464 32.4565 106.345C32.7148 107.06 33.2372 107.277 33.8931 106.941C34.3303 106.717 34.7249 106.273 34.8584 105.72C35.1621 106.049 35.2473 106.49 34.7646 107.1C34.0633 107.822 33.0157 107.996 32.6182 109.047C32.2207 110.098 31.4257 112.199 32.2064 113.131C33.0752 113.897 33.7793 112.568 34.5657 112.286C35.003 112.062 35.5282 111.672 35.9229 111.228C35.9229 111.228 36.0535 111.282 36.1415 111.116C37.016 110.668 38.3333 108.783 38.2936 107.956C38.3845 107.183 37.8196 106.746 36.9025 106.974Z" fill="#98A2B3" fill-opacity="0.25"/>
<path d="M23.781 88.4046C23.7366 88.7856 23.6923 89.1667 23.6479 89.5478C23.6923 89.1667 23.7366 88.7856 23.781 88.4046Z" fill="#98A2B3" fill-opacity="0.25"/>
<path d="M36.7488 120.442C36.6059 120.383 36.3668 120.506 36.3668 120.506C37.3138 122.011 38.3571 123.333 39.4004 124.656L39.4967 124.474C39.888 122.414 37.9412 120.494 36.7488 120.442Z" fill="#98A2B3" fill-opacity="0.25"/>
<path d="M35.2544 112.658C34.9371 112.944 34.5727 113.626 34.6607 114.079C34.6137 114.476 35.1511 115.322 35.7387 115.147C36.3262 114.973 36.6026 113.838 36.6496 113.441C36.6086 112.591 35.7979 112.257 35.2544 112.658Z" fill="#98A2B3" fill-opacity="0.25"/>
<path d="M44.6633 96.9835C43.8939 96.8756 43.0301 97.564 42.7086 98.4758C42.4785 99.2164 42.7466 99.9532 43.5159 100.061C44.2853 100.169 44.9663 99.823 45.2878 98.9112C45.6093 97.9995 45.4326 97.0915 44.6633 96.9835Z" fill="#98A2B3" fill-opacity="0.25"/>
<path d="M28.4095 101.103C27.8651 100.879 27.0455 101.17 26.4063 101.745C26.628 102.884 26.8498 104.023 27.0715 105.162C27.9355 105.098 28.8469 104.635 29.1695 103.72C29.5839 102.634 29.1817 101.211 28.4095 101.103Z" fill="#98A2B3" fill-opacity="0.25"/>
<path d="M32.7497 96.8126C32.6137 96.1128 32.1055 95.4742 31.5488 95.2448C31.552 94.6024 31.4613 94.1359 31.6943 94.0174C32.0211 93.723 33.3737 92.7786 32.914 91.7309C31.9946 89.6354 30.1728 91.4593 29.71 91.0539C29.5708 90.9966 29.5255 90.7633 29.5255 90.7633C27.8523 90.7174 26.2245 90.9047 24.5514 90.8587C24.4513 92.3194 24.4904 93.8374 24.3903 95.2981C24.7624 95.2369 24.9954 95.1184 25.3676 95.0572C26.2995 94.5831 26.9532 93.9943 27.2831 93.0575C27.4223 93.1149 27.5615 93.1722 27.6068 93.4054C28.018 94.8623 26.6232 94.9311 27.3581 96.7359C27.5879 97.2598 27.9116 97.6077 28.3291 97.7798C28.0476 98.3075 27.9992 98.7166 28.0445 98.9499C28.1321 100.059 29.3846 100.575 30.6887 100.04C31.7598 99.623 32.8373 97.9215 32.7497 96.8126Z" fill="#98A2B3" fill-opacity="0.25"/>
<path d="M30.3583 106.844C29.9029 106.446 29.0307 107.141 28.7984 107.888C28.7061 108.061 28.5215 108.407 28.6584 108.463C28.703 108.692 28.7477 108.921 28.8846 108.977C29.0215 109.034 29.0661 109.263 29.4322 109.203C29.9353 109.199 30.8044 109.135 31.0367 108.388C31.269 107.64 30.6767 107.186 30.3583 106.844Z" fill="#98A2B3" fill-opacity="0.25"/>
</svg>
