<svg width="196" height="129" viewBox="0 0 196 129" fill="none" xmlns="http://www.w3.org/2000/svg">
<path d="M44.2356 86.3585C44.2356 86.2169 44.094 85.9338 43.9525 85.863C43.8109 85.7922 43.3154 85.7922 43.2446 85.9337C43.103 86.1461 43.457 86.5001 43.5985 86.6417C43.8109 86.7832 44.2356 86.6417 44.2356 86.3585Z" fill="#E6EBF2"/>
<path d="M44.094 82.6776C44.8727 81.9698 45.1558 82.6776 45.8637 82.3237C46.0052 82.2529 46.076 82.1113 46.1468 82.1113C46.6423 81.4743 46.3592 80.8372 45.6513 80.6956C45.2266 80.6249 44.7311 80.6249 44.2356 80.6956C43.7401 80.7664 43.3154 81.4035 43.3154 81.899C43.2446 82.1821 43.4569 82.8192 44.094 82.6776Z" fill="#E6EBF2"/>
<path d="M43.7401 76.7315C44.094 76.8731 44.4479 76.7316 44.5895 76.4484C44.731 76.1653 44.5895 75.6698 44.3063 75.5282C44.0232 75.3866 43.5985 75.5282 43.4569 75.8821C43.3153 76.2361 43.3861 76.59 43.7401 76.7315Z" fill="#E6EBF2"/>
<path d="M47.7749 102.002C47.7041 102.144 47.6333 102.427 47.8457 102.498C47.9872 102.568 48.1996 102.427 48.2704 102.356C48.3412 102.285 48.3412 101.861 48.1996 101.79C48.058 101.719 47.7749 101.931 47.7749 102.002Z" fill="#E6EBF2"/>
<path d="M46.4299 68.1664C47.1377 68.3788 47.704 67.8125 47.9164 67.2462C48.1287 66.68 47.4917 65.6182 46.713 65.4766C46.1467 65.4058 46.0052 66.1137 46.2175 66.4676C46.3591 66.8215 46.2883 66.7508 46.0759 67.0339C45.8636 67.3878 45.722 68.0249 46.4299 68.1664Z" fill="#E6EBF2"/>
<path d="M46.8547 69.5823C46.6423 69.9362 46.7839 70.2901 47.1378 70.5733C47.3502 70.7148 47.5625 70.8564 47.6333 71.0687C47.8457 71.4934 48.1288 71.7058 48.5535 71.7058C48.9074 71.7058 49.4029 70.998 49.3322 70.5733C49.3322 70.2193 49.3322 69.7946 48.7659 69.7238C48.4119 69.6531 48.058 69.5115 47.6333 69.4407C47.3502 69.1576 46.9962 69.2991 46.8547 69.5823Z" fill="#E6EBF2"/>
<path d="M49.4737 66.397C49.5445 66.1138 49.4029 65.9722 49.1905 65.9015C48.9074 65.7599 48.5535 65.9015 48.5535 66.1846C48.5535 66.3969 48.6243 66.6093 48.695 66.8216C48.9782 66.8924 49.3321 66.6801 49.4737 66.397Z" fill="#E6EBF2"/>
<path d="M49.2613 64.061C49.4029 64.1318 49.6152 63.9902 49.686 63.9194C49.7568 63.8486 49.7568 63.4239 49.6152 63.4239C49.4737 63.3531 49.1905 63.5655 49.1198 63.707C49.1198 63.707 49.1198 63.9902 49.2613 64.061Z" fill="#E6EBF2"/>
<path d="M50.1108 73.8294C49.9692 74.3957 50.1816 75.0328 50.6771 75.2451C50.8187 74.3249 50.9602 73.4047 51.1726 72.4845C51.031 72.1306 50.4647 71.9182 50.1108 72.0598C49.7569 72.2014 49.403 72.6261 49.403 73.0508C49.403 73.5463 49.8985 73.7586 50.1108 73.8294Z" fill="#E6EBF2"/>
<path d="M41.4749 94.4989C41.1918 94.3573 40.6255 94.7113 40.6255 94.9236C40.6255 95.136 40.8378 95.3483 41.0502 95.4191C41.2626 95.5607 41.5457 95.5607 41.6873 95.2068C41.7581 94.9236 41.8288 94.6405 41.4749 94.4989Z" fill="#E6EBF2"/>
<path d="M44.3771 73.6878C44.6603 73.8294 45.1558 73.7586 45.1558 73.4755C45.2266 73.2631 45.2266 72.6968 44.9434 72.5553C44.6603 72.4137 44.3771 72.8384 44.2356 72.98C44.1648 73.1923 44.094 73.4755 44.3771 73.6878Z" fill="#E6EBF2"/>
<path d="M50.1816 107.099C49.8277 106.957 49.4737 107.099 49.3322 107.453C49.1906 107.806 49.2614 108.09 49.6153 108.231C49.9692 108.373 50.3232 108.231 50.4647 107.948C50.5355 107.594 50.3939 107.24 50.1816 107.099Z" fill="#E6EBF2"/>
<path d="M45.7221 104.409C45.7221 104.267 45.7221 104.055 45.6513 103.984C45.5805 103.913 45.1558 103.984 45.1558 104.055C45.085 104.126 45.2974 104.409 45.4389 104.48C45.5097 104.55 45.7221 104.409 45.7221 104.409Z" fill="#E6EBF2"/>
<path d="M45.2265 102.285C45.0849 102.214 45.0142 102.356 45.0142 102.427C45.0142 102.498 45.0849 102.639 45.1557 102.639C45.2265 102.639 45.3681 102.639 45.3681 102.568C45.3681 102.427 45.2973 102.285 45.2265 102.285Z" fill="#E6EBF2"/>
<path d="M46.5714 100.586C46.2882 100.445 45.8635 100.657 45.722 101.011C45.5804 101.365 45.7927 101.648 46.1467 101.861C46.5714 102.002 46.8545 101.931 46.9961 101.648C47.0669 101.365 46.8545 100.728 46.5714 100.586Z" fill="#E6EBF2"/>
<path d="M45.6513 88.1988C45.8636 87.7741 45.5805 87.3494 45.0142 87.1371C44.5895 86.9247 44.1648 87.0663 44.0232 87.4202C43.8817 87.7741 44.094 88.6235 44.4479 88.8359C44.9434 88.9775 45.3682 88.7651 45.6513 88.1988Z" fill="#E6EBF2"/>
<path d="M47.6333 87.9866C47.7749 87.6327 47.5625 87.2787 47.1378 87.2079C46.7839 87.0664 46.5007 87.2079 46.3591 87.5619C46.2176 87.9158 46.4299 88.2697 46.7131 88.4113C47.1378 88.5529 47.5625 88.3405 47.6333 87.9866Z" fill="#E6EBF2"/>
<path d="M41.7581 80.6248C41.7581 80.6956 41.8288 80.8372 41.8996 80.8372C41.9704 80.8372 42.112 80.8372 42.112 80.7664C42.112 80.6956 42.112 80.554 42.0412 80.4833C41.8996 80.4125 41.8288 80.554 41.7581 80.6248Z" fill="#E6EBF2"/>
<path d="M41.4041 88.9777C41.0502 88.7653 40.767 88.9069 40.6254 89.19C40.4131 89.5439 40.5547 89.8978 40.8378 90.1102C41.1209 90.2517 41.5457 90.1102 41.6872 89.8978C41.8996 89.5439 41.758 89.19 41.4041 88.9777Z" fill="#E6EBF2"/>
<path d="M43.1737 71.3519C43.2445 71.2104 43.1737 70.998 43.1029 70.9272C43.0322 70.8564 42.6782 70.8565 42.6074 70.998C42.5367 71.1396 42.749 71.3519 42.8906 71.4227C42.8906 71.4935 43.1737 71.4935 43.1737 71.3519Z" fill="#E6EBF2"/>
<path d="M44.0939 98.2504C43.8815 98.1796 43.6692 98.392 43.5984 98.4628C43.5276 98.5336 43.6692 98.8167 43.74 98.8875C43.8108 98.9583 44.0939 98.8875 44.0939 98.7459C44.2355 98.6751 44.3063 98.3212 44.0939 98.2504Z" fill="#E6EBF2"/>
<path d="M43.9524 90.1808C43.5985 90.0392 43.1738 90.3224 43.0322 90.7471C42.8198 91.3134 43.0322 91.8088 43.5277 91.9504C43.9524 92.1627 44.5187 91.9504 44.6603 91.6673C44.8018 91.1718 44.4479 90.4639 43.9524 90.1808Z" fill="#E6EBF2"/>
<path d="M43.9524 93.2954C43.5984 93.1538 43.1737 93.3662 43.0322 93.7201C42.8906 94.0033 43.0322 94.3572 43.3861 94.4988C43.8108 94.7111 44.1647 94.5696 44.3063 94.1448C44.4479 93.8617 44.3063 93.437 43.9524 93.2954Z" fill="#E6EBF2"/>
<path d="M46.8546 84.3765C47.4209 84.5888 47.9164 84.3765 48.1288 83.881C48.3411 83.3147 48.1288 82.89 47.5625 82.6777C47.067 82.4653 46.4299 82.6777 46.2883 83.0316C46.076 83.4563 46.4299 84.2349 46.8546 84.3765Z" fill="#E6EBF2"/>
<path d="M45.722 80.4124C45.722 80.7663 46.5007 81.1203 46.713 80.9079C46.9254 80.6956 46.713 79.9169 46.3591 79.9169C46.076 79.8461 45.722 80.1293 45.722 80.4124Z" fill="#E6EBF2"/>
<path d="M47.9872 79.7046C48.1288 79.6338 48.1996 79.3507 48.1288 79.2091C47.9872 78.9968 47.7749 78.7844 47.5625 78.7844C47.1378 78.7844 47.1378 79.1383 47.067 79.4215C47.3502 79.7754 47.6333 79.917 47.9872 79.7046Z" fill="#E6EBF2"/>
<path d="M48.2702 92.5168C48.5534 92.6584 49.1197 92.5168 49.2612 92.2337C49.5444 91.5966 49.4736 90.9595 49.0489 90.818C48.6949 90.6764 47.9163 91.0303 47.7747 91.455C47.5624 91.7382 47.8455 92.3753 48.2702 92.5168Z" fill="#E6EBF2"/>
<path d="M46.8546 74.9619C46.5007 74.8911 46.1467 75.1035 46.0052 75.3866C45.8636 75.7406 46.0759 76.0237 46.4299 76.2361C46.7838 76.3776 47.2085 76.2361 47.3501 75.8821C47.4209 75.5282 47.1377 75.0327 46.8546 74.9619Z" fill="#E6EBF2"/>
<path d="M54.9242 109.647C54.7826 109.576 54.4287 109.647 54.3579 109.718C54.2871 109.859 54.4287 110.213 54.4995 110.284C54.6411 110.355 55.1366 110.355 55.2073 110.213C55.2781 110.072 55.0658 109.647 54.9242 109.647Z" fill="#E6EBF2"/>
<path d="M62.4982 110.072C62.3566 110.213 62.4982 110.496 62.569 110.567C62.6398 110.638 62.9229 110.709 62.9937 110.567C63.0645 110.496 63.0645 110.355 63.0645 110.284C62.9937 110.213 62.9229 110.142 62.8521 110.072C62.7105 110.001 62.569 110.001 62.4982 110.072Z" fill="#E6EBF2"/>
<path d="M96.4753 121.964C96.263 122.176 96.263 122.53 96.5461 122.672C96.7585 122.742 96.9708 122.884 97.1832 122.742C97.3248 122.601 97.3956 121.964 97.1124 121.822C96.8293 121.61 96.6169 121.751 96.4753 121.964Z" fill="#E6EBF2"/>
<path d="M53.5084 97.8258C53.5792 98.1797 53.7208 98.392 54.1455 98.392C54.2163 98.392 54.2163 98.392 54.2871 98.392C54.0747 98.0381 53.9331 97.6134 53.7208 97.1887C53.5792 97.401 53.5084 97.5426 53.5084 97.8258Z" fill="#E6EBF2"/>
<path d="M54.2162 100.516C54.1455 100.94 54.1455 101.223 54.5702 101.365C54.7117 101.436 54.9949 101.294 55.0657 101.153C55.1365 101.011 55.2072 100.657 55.1365 100.516C54.8533 100.162 54.5702 100.303 54.2162 100.516Z" fill="#E6EBF2"/>
<path d="M53.296 58.9645C53.4376 58.9645 53.5791 58.6813 53.5084 58.5397C53.5084 58.3982 53.2252 58.2566 53.0836 58.2566C52.9421 58.2566 52.6589 58.4689 52.6589 58.6813C52.7297 58.8229 53.2252 58.9645 53.296 58.9645Z" fill="#E6EBF2"/>
<path d="M49.8276 76.5192C49.6861 76.8731 49.8276 77.2978 50.1108 77.4394C50.1816 77.5102 50.3231 77.5102 50.3939 77.4394C50.3939 77.0147 50.4647 76.59 50.5355 76.2361C50.2523 76.0945 49.9692 76.2361 49.8276 76.5192Z" fill="#E6EBF2"/>
<path d="M51.8096 63.4947C52.3758 63.7778 53.1545 63.3531 53.3668 62.7869C53.5792 62.2206 53.2253 61.3712 52.7298 61.1588C52.0927 60.8757 51.3141 61.1588 51.1017 61.7251C50.8894 62.1498 51.3141 63.2116 51.8096 63.4947Z" fill="#E6EBF2"/>
<path d="M51.9511 68.0249C52.0219 67.7418 51.8803 67.6002 51.668 67.5294C51.3848 67.3878 51.0309 67.5294 51.0309 67.8126C51.0309 68.025 51.1017 68.2373 51.1725 68.4497C51.5264 68.5205 51.8803 68.3081 51.9511 68.0249Z" fill="#E6EBF2"/>
<path d="M49.7568 89.9684C50.2523 90.1808 50.9602 89.9684 51.1018 89.5437C51.2433 89.119 50.8894 88.2696 50.5355 88.0573C50.1108 87.8449 49.5445 88.1281 49.3321 88.6236C49.049 89.119 49.3321 89.8269 49.7568 89.9684Z" fill="#E6EBF2"/>
<path d="M48.5534 80.0585C48.6242 80.4832 48.7658 80.7663 49.0489 80.9079C49.0489 80.9787 48.9781 80.9786 48.9781 81.0494C48.695 81.6865 48.9781 82.1112 49.4736 82.4651C49.2613 82.819 48.9074 83.0314 49.2613 83.4561C49.4736 83.7392 49.7568 83.7392 50.0399 83.5977C50.5354 83.3853 50.3231 82.9606 50.2523 82.5359C50.3231 82.4651 50.3939 82.4651 50.4646 82.3943C50.4646 81.8281 50.3939 81.3326 50.3939 80.7663C50.3939 80.2 50.3939 79.7045 50.4646 79.1383C50.2523 78.8551 49.9691 78.6428 49.7568 78.6428C49.1197 78.7135 48.4119 79.3506 48.5534 80.0585Z" fill="#E6EBF2"/>
<path d="M64.5511 112.478C64.7635 112.549 64.9758 112.549 65.1882 112.549C65.259 112.478 65.3297 112.337 65.3297 112.195C65.1174 111.983 64.8342 111.841 64.6219 111.629C64.5511 111.629 64.5511 111.7 64.5511 111.7C64.268 111.983 64.268 112.337 64.5511 112.478Z" fill="#E6EBF2"/>
<path d="M73.5408 117.363C73.1868 117.221 72.8329 117.009 72.479 116.867C72.479 117.079 72.4082 117.575 72.6206 117.717C72.8329 117.929 73.2576 117.575 73.5408 117.363Z" fill="#E6EBF2"/>
<path d="M50.04 85.5798C49.8984 85.863 50.04 86.2169 50.3939 86.3585C50.4647 86.4292 50.6063 86.4292 50.7478 86.4292C50.677 86.0045 50.6063 85.5799 50.6063 85.1552C50.3231 85.2259 50.1108 85.4383 50.04 85.5798Z" fill="#E6EBF2"/>
<path d="M97.6079 123.875C97.5371 124.016 97.6079 124.3 97.6787 124.3C97.8203 124.37 98.0327 124.512 98.1034 124.441C98.1742 124.3 98.1742 124.087 98.1034 124.016C98.1034 123.946 97.7495 123.804 97.6079 123.875Z" fill="#E6EBF2"/>
<path d="M89.1844 121.256C89.1136 121.256 89.1136 121.185 89.0428 121.185C88.5473 121.185 88.1226 121.114 87.6271 121.114C87.4148 121.468 87.4856 122.176 87.8395 122.459C88.1226 122.672 88.8305 122.601 89.1136 122.318C89.3968 122.035 89.3968 121.468 89.1844 121.256Z" fill="#E6EBF2"/>
<path d="M93.4316 121.114C93.1485 121.114 92.7945 121.185 92.5114 121.185C92.299 121.539 92.5822 121.822 93.0777 121.539C93.1485 121.327 93.3608 121.256 93.4316 121.114Z" fill="#E6EBF2"/>
<path d="M84.8665 123.238C85.2204 122.884 85.1496 122.388 84.7249 121.964C84.371 121.68 83.9463 121.751 83.5215 122.176C83.2384 122.53 83.1676 122.955 83.4508 123.167C83.6631 123.521 84.5833 123.521 84.8665 123.238Z" fill="#E6EBF2"/>
<path d="M82.4597 122.671C82.3182 122.601 82.035 122.671 81.8934 122.813C81.7519 122.955 81.6103 123.379 81.7519 123.521C81.8935 123.662 82.3182 123.521 82.5305 123.45C82.7429 123.238 82.6721 122.742 82.4597 122.671Z" fill="#E6EBF2"/>
<path d="M79.1328 123.167C78.7081 122.247 79.4867 122.176 79.416 121.397C79.416 121.256 79.3452 121.114 79.2744 121.043C78.8497 120.406 78.1418 120.406 77.7879 121.043C77.5755 121.468 77.4339 121.893 77.2924 122.318C77.1508 122.813 77.6463 123.45 78.1418 123.592C78.4249 123.804 79.062 123.804 79.1328 123.167Z" fill="#E6EBF2"/>
<path d="M92.8652 123.45C92.582 123.875 92.582 124.37 92.8652 124.654C93.2191 124.937 93.9978 124.937 94.2101 124.654C94.4225 124.37 94.2101 123.663 93.8562 123.309C93.6438 123.096 93.0775 123.167 92.8652 123.45Z" fill="#E6EBF2"/>
<path d="M77.8587 119.132C77.5756 119.061 77.2924 118.92 77.0801 118.849C77.0801 119.061 77.0093 119.557 77.2216 119.557C77.2924 119.628 77.7171 119.274 77.8587 119.132Z" fill="#E6EBF2"/>
<path d="M84.1586 120.69C84.1586 120.831 83.9462 120.973 84.017 121.114C84.0878 121.397 85.0788 121.185 85.2912 120.902C85.2912 120.902 85.2912 120.831 85.3619 120.831C84.9372 120.76 84.5125 120.69 84.1586 120.69Z" fill="#E6EBF2"/>
<path d="M48.2703 96.41C47.7748 96.2684 47.2793 96.41 47.1377 96.7639C46.9962 97.1886 47.2085 97.8964 47.5624 98.038C47.8456 98.1796 48.4827 97.7549 48.695 97.2594C48.9074 97.047 48.6242 96.5515 48.2703 96.41Z" fill="#E6EBF2"/>
<path d="M98.6696 121.043C98.4573 121.256 98.4573 121.539 98.6696 121.822C98.8112 122.034 99.5191 121.964 99.6607 121.751C99.7314 121.468 99.6607 121.327 99.5191 121.114C99.3067 120.831 98.882 120.831 98.6696 121.043Z" fill="#E6EBF2"/>
<path d="M102.775 120.123C102.988 119.911 103.058 119.628 103.058 119.274C102.35 119.486 101.572 119.769 100.793 119.911C100.864 119.982 100.935 120.052 101.006 120.123C101.43 120.619 102.35 120.548 102.775 120.123Z" fill="#E6EBF2"/>
<path d="M52.8006 100.869C52.9422 100.728 53.0838 100.303 53.0838 100.091C53.013 99.8077 52.7299 99.8077 52.6591 99.8077C52.4467 99.8785 52.3759 100.091 52.3051 100.303C52.2344 100.516 52.1636 100.657 52.1636 100.869C52.3051 101.082 52.5883 101.082 52.8006 100.869Z" fill="#E6EBF2"/>
<path d="M52.3051 106.178C52.1635 106.391 52.4466 106.532 52.5882 106.603C52.659 106.674 52.9421 106.532 52.9421 106.462C52.9421 106.32 52.9421 106.108 52.8713 106.037C52.7298 106.037 52.4466 105.966 52.3051 106.178Z" fill="#E6EBF2"/>
<path d="M55.0657 112.761C54.8534 112.691 54.2871 112.691 54.2163 112.903C54.1455 113.045 54.4286 113.469 54.641 113.682C54.8534 113.894 55.1365 113.752 55.3489 113.399C55.4904 113.045 55.3489 112.832 55.0657 112.761Z" fill="#E6EBF2"/>
<path d="M54.9242 104.055C55.2074 103.489 54.9242 102.851 54.1456 102.498C53.5793 102.214 52.9422 102.427 52.6591 103.064C52.376 103.63 52.7299 104.48 53.2962 104.763C53.8625 104.904 54.7119 104.55 54.9242 104.055Z" fill="#E6EBF2"/>
<path d="M56.6938 102.568C56.623 102.427 56.5522 102.356 56.5522 102.285C56.4814 102.215 56.4107 102.215 56.4107 102.215C56.2691 102.215 56.0567 102.356 55.9859 102.498C55.9152 102.568 56.0567 102.993 56.2691 103.064C56.4107 103.064 56.623 102.71 56.6938 102.568Z" fill="#E6EBF2"/>
<path d="M58.5342 107.311C58.8173 107.24 59.1005 107.028 59.1713 106.886C59.3128 106.462 58.9589 105.895 58.3926 105.683C57.8971 105.471 57.5432 105.754 57.3308 106.32C57.2601 106.532 57.3308 106.815 57.4724 107.028C57.1893 107.099 56.9769 107.169 56.8353 107.311C56.4106 107.806 56.3398 108.656 56.8353 109.01C57.2601 109.364 58.3926 109.293 58.8173 108.939C59.1713 108.656 59.1005 107.806 58.5342 107.311C58.605 107.311 58.5342 107.311 58.5342 107.311Z" fill="#E6EBF2"/>
<path d="M60.3038 110.142C60.3746 109.859 60.3746 109.576 60.0207 109.505C59.8083 109.435 59.1713 109.505 59.1005 109.718C59.0297 109.93 59.5252 110.355 59.7376 110.426C59.9499 110.567 60.2331 110.426 60.3038 110.142Z" fill="#E6EBF2"/>
<path d="M49.686 104.126C49.4736 104.055 49.1197 104.267 48.9781 104.621C48.8366 104.904 48.9781 105.046 49.1905 105.187C49.4736 105.258 49.7568 105.329 49.8983 104.975C50.1107 104.692 49.9691 104.267 49.686 104.126Z" fill="#E6EBF2"/>
<path d="M50.6771 93.2955C51.1018 93.3663 51.3849 93.2247 51.4557 93.0123C51.5973 92.5876 51.4557 92.1629 51.031 92.0214C50.6771 91.9506 50.3232 92.0921 50.2524 92.4461C50.2524 92.5169 50.1816 92.6584 50.1816 92.7292C50.1108 92.6584 50.04 92.6584 49.8984 92.6584C49.4029 92.6584 49.4737 93.1539 49.3322 93.5078C49.7569 93.791 50.1108 94.0033 50.4647 93.6494C50.6063 93.5786 50.6771 93.4371 50.6771 93.2955Z" fill="#E6EBF2"/>
<path d="M52.5174 94.782C52.5174 94.4989 52.3051 94.2865 52.0219 94.2157C51.668 94.1449 51.2433 94.2865 51.1725 94.5696C51.0309 95.0652 51.3141 95.3483 51.668 95.6315C52.3051 95.4191 52.5882 95.2067 52.5174 94.782Z" fill="#E6EBF2"/>
<path d="M50.3939 98.6751C50.3939 98.8875 50.3231 99.1706 50.5355 99.3122C50.677 99.4538 51.3141 99.2414 51.3849 98.9583C51.4557 98.6751 51.3141 98.5336 51.1018 98.4628C50.7478 98.2504 50.3939 98.392 50.3939 98.6751Z" fill="#E6EBF2"/>
<path d="M51.1017 101.082C50.8186 100.94 50.5354 101.082 50.3939 101.294C50.2523 101.507 50.5354 102.144 50.8186 102.144C51.1017 102.144 51.2433 102.002 51.3849 101.79C51.5264 101.648 51.3849 101.223 51.1017 101.082Z" fill="#E6EBF2"/>
<path d="M60.1623 113.54C60.0915 113.682 60.1623 113.894 60.3039 113.965C60.4454 114.036 60.6578 113.894 60.7286 113.823C60.7994 113.753 60.7994 113.328 60.6578 113.328C60.5162 113.186 60.2331 113.399 60.1623 113.54Z" fill="#E6EBF2"/>
<path d="M73.2577 119.982C73.5408 119.699 73.5408 119.274 73.2577 119.061C73.0453 118.849 72.5498 118.849 72.3375 119.061C72.0543 119.274 72.1251 119.699 72.4083 119.982C72.6206 120.265 72.9746 120.265 73.2577 119.982Z" fill="#E6EBF2"/>
<path d="M71.0633 116.726C70.8509 116.442 70.5678 116.301 70.2138 116.442C69.9307 116.513 69.7891 116.726 69.7891 117.009C69.7891 117.15 69.8599 117.221 69.8599 117.363C69.7891 117.363 69.7183 117.433 69.6476 117.504C69.4352 117.787 69.7183 118.141 69.7891 118.283C69.9307 118.495 70.2138 118.637 70.4262 118.424C70.6386 118.283 70.7093 117.929 70.6386 117.717C70.9925 117.363 71.2756 117.15 71.0633 116.726Z" fill="#E6EBF2"/>
<path d="M69.2936 120.619C69.152 120.831 69.0105 121.468 69.152 121.61C69.2936 121.822 69.9307 121.468 69.9307 121.327C70.0015 121.043 70.143 120.69 69.9307 120.477C69.6475 120.194 69.3644 120.477 69.2936 120.619Z" fill="#E6EBF2"/>
<path d="M72.6205 122.388C72.2666 122.813 72.2666 123.379 72.5497 123.592C72.9744 123.946 73.7531 123.875 74.1778 123.45C74.4609 123.167 74.3193 122.53 73.8946 122.247C73.4699 121.893 72.9744 121.964 72.6205 122.388Z" fill="#E6EBF2"/>
<path d="M75.5227 124.866C75.4519 124.937 75.5227 125.078 75.5935 125.149C75.6643 125.22 75.8059 125.149 75.8059 125.078C75.8767 125.007 75.8767 124.937 75.8059 124.866C75.7351 124.795 75.5935 124.724 75.5227 124.866Z" fill="#E6EBF2"/>
<path d="M69.5061 115.239C68.9398 114.885 68.3735 114.531 67.878 114.177L67.8072 114.248C67.5949 114.602 67.3825 114.885 67.1702 115.168C66.8162 115.451 66.8162 115.734 67.0286 116.018C67.3117 116.301 67.6657 116.301 68.0196 116.088C68.2319 115.947 68.4443 115.805 68.6567 115.805C69.0814 115.734 69.3645 115.593 69.5061 115.239Z" fill="#E6EBF2"/>
<path d="M61.1533 108.373C60.9409 108.444 60.7286 108.585 60.6578 108.798C60.5162 109.081 60.6578 109.435 61.0117 109.576C61.4364 109.789 61.7903 109.647 61.9319 109.222C61.9319 109.222 61.9319 109.222 61.9319 109.151C61.7195 108.939 61.4364 108.656 61.1533 108.373Z" fill="#E6EBF2"/>
<path d="M60.8701 115.168C60.7994 115.239 60.8701 115.522 60.9409 115.593C61.0117 115.664 61.2949 115.805 61.3656 115.664C61.5072 115.522 61.2949 115.239 61.2241 115.168C61.1533 115.097 60.9409 115.027 60.8701 115.168Z" fill="#E6EBF2"/>
<path d="M62.569 118C62.4274 117.929 62.2858 118.07 62.1443 118.212C62.0735 118.283 62.0735 118.566 62.2151 118.637C62.3566 118.708 62.569 118.424 62.6398 118.354C62.7106 118.283 62.6398 118.07 62.569 118Z" fill="#E6EBF2"/>
<path d="M64.8341 116.089C64.3386 115.664 63.1353 115.947 62.7813 116.655C62.569 117.15 63.1353 117.504 63.56 117.504C63.9139 117.433 63.8431 117.504 64.0555 117.858C64.2678 118.212 64.8341 118.495 65.2588 117.858C65.6128 117.221 65.2588 116.513 64.8341 116.089Z" fill="#E6EBF2"/>
<path d="M66.8162 120.69C66.7454 120.76 66.6038 121.043 66.7454 121.185C66.887 121.326 67.1701 121.114 67.2409 121.043C67.3117 120.973 67.3825 120.76 67.2409 120.69C67.1701 120.69 66.9577 120.619 66.8162 120.69Z" fill="#E6EBF2"/>
<path d="M115.092 0.07079L67.8071 0C67.8071 70.7857 125.214 128.193 196 128.193V80.908C151.334 80.908 115.092 44.7365 115.092 0.07079Z" fill="#ECF0F6"/>
<path d="M6.61603 111.646C10.27 111.646 13.2321 108.683 13.2321 105.03C13.2321 101.376 10.27 98.4135 6.61603 98.4135C2.96209 98.4135 0 101.376 0 105.03C0 108.683 2.96209 111.646 6.61603 111.646Z" fill="#FEC514"/>
<path d="M90.671 112.62C108.224 112.62 122.454 98.3903 122.454 80.8372C122.454 63.284 108.224 49.0544 90.671 49.0544C73.1178 49.0544 58.8882 63.284 58.8882 80.8372C58.8882 98.3903 73.1178 112.62 90.671 112.62Z" fill="#F04E98"/>
<path d="M104.899 85.4383C104.97 85.2967 104.97 84.9428 104.828 84.872C104.687 84.8012 104.403 85.0136 104.262 85.1551C104.12 85.2967 104.262 85.7214 104.474 85.7214C104.616 85.6506 104.828 85.5798 104.899 85.4383Z" fill="#E32682"/>
<path d="M114.95 98.4627C114.95 98.6042 114.95 98.8166 115.021 98.9582C115.233 99.029 115.446 99.029 115.587 98.8874C115.658 99.029 115.8 99.2414 115.941 99.2414C116.224 99.3121 116.508 99.1706 116.649 98.9582C116.72 98.675 116.578 98.3211 116.295 98.2503C116.083 98.1795 115.871 98.2503 115.729 98.3919C115.658 98.3211 115.658 98.3211 115.587 98.2503C115.233 98.1795 115.021 98.2503 114.95 98.4627Z" fill="#E32682"/>
<path d="M104.12 88.0571C104.262 88.1987 104.828 88.1279 105.04 87.7032C105.182 87.4908 105.111 87.2077 104.828 87.0661C104.616 86.9246 104.333 86.9246 104.12 87.0661C103.766 87.3493 103.979 87.9155 104.12 88.0571Z" fill="#E32682"/>
<path d="M107.376 88.2696C107.518 87.8449 107.376 87.3494 107.093 87.2787C106.81 87.1371 106.173 87.4202 106.031 87.7741C105.819 88.2696 106.031 88.6236 106.456 88.7651C106.881 88.8359 107.235 88.6944 107.376 88.2696Z" fill="#E32682"/>
<path d="M97.7495 72.8382C98.1034 72.5551 98.1742 71.9888 97.9619 71.6349C97.7495 71.281 97.1124 71.281 96.6877 71.5641C96.4046 71.7765 96.4046 72.1304 96.6169 72.4843C96.9001 72.8382 97.4664 73.0506 97.7495 72.8382Z" fill="#E32682"/>
<path d="M96.546 75.8113C96.9 75.7405 97.2539 75.8112 97.3247 75.3865C97.3247 75.3865 97.3247 75.3158 97.3247 75.245C97.6078 75.3158 98.0325 75.1742 98.2449 75.0326C98.4572 74.8203 98.4572 74.5371 98.2449 74.3248C97.9617 73.9709 97.4662 73.9001 97.2539 74.1124C97.0415 74.3248 96.9708 74.5371 96.9708 74.7495C96.7584 74.6787 96.6168 74.8203 96.4753 74.9618C96.1921 75.245 96.4045 75.5281 96.546 75.8113Z" fill="#E32682"/>
<path d="M100.51 81.0494C100.793 81.191 101.006 81.0494 101.147 80.8371C101.289 80.5539 101.147 80.2 100.864 80.0585C100.652 79.9877 100.227 80.1292 100.156 80.3416C100.085 80.6247 100.298 80.9786 100.51 81.0494Z" fill="#E32682"/>
<path d="M112.26 90.5346C111.977 90.3931 111.623 90.5347 111.553 90.747C111.482 91.0302 111.553 91.3133 111.836 91.4549C112.119 91.5964 112.331 91.4549 112.473 91.2425C112.614 90.9594 112.544 90.6054 112.26 90.5346Z" fill="#E32682"/>
<path d="M100.085 84.9426C100.369 85.2257 100.652 85.5797 100.935 85.8628C101.147 85.792 101.36 85.5797 101.43 85.3673C101.501 85.2257 101.43 85.0134 101.289 84.801C101.43 84.5179 101.501 83.9516 101.36 83.8101C101.076 83.4561 100.652 83.4561 100.298 83.8101C100.015 84.0224 100.085 84.3056 100.298 84.6595C100.156 84.801 100.085 84.8718 100.085 84.9426Z" fill="#E32682"/>
<path d="M96.5462 79.9168C96.4754 80.0584 96.5462 80.4831 96.8293 80.5539C96.9709 80.6247 97.0417 80.5539 97.1832 80.4831C97.3956 80.6247 97.6787 80.6955 97.8911 80.4831C98.1035 80.2708 98.1742 79.9168 98.0327 79.7753C97.9619 79.6337 97.7495 79.5629 97.5372 79.5629C97.4664 79.4921 97.4664 79.3505 97.3956 79.3505C97.0417 79.209 96.6877 79.7045 96.5462 79.9168Z" fill="#E32682"/>
<path d="M110.916 93.5076C110.562 93.4369 110.349 93.0829 109.995 93.1537C109.641 93.2245 109.075 93.4369 108.792 93.9324C109.641 94.711 110.491 95.4896 111.34 96.2683C111.34 96.2683 111.34 96.2683 111.34 96.1975C111.411 95.9851 111.269 95.8436 111.199 95.7728C111.553 95.5604 111.694 95.1357 111.765 94.7818C111.836 94.4986 111.765 94.2863 111.694 94.0739C111.553 93.7908 111.269 93.5784 110.916 93.5076Z" fill="#E32682"/>
<path d="M116.012 99.4537C115.658 99.3122 115.304 99.3122 115.163 99.4537C115.446 99.6661 115.658 99.8784 115.941 100.091C116.083 99.9492 116.154 99.8076 116.224 99.6661C116.224 99.5953 116.154 99.5245 116.012 99.4537Z" fill="#E32682"/>
<path d="M101.643 86.2167C101.572 86.2875 101.501 86.4291 101.501 86.5706C101.643 86.7122 101.784 86.9246 101.997 87.0661C102.138 87.0661 102.28 86.9954 102.421 86.9246C102.634 86.7122 102.634 86.3583 102.492 86.2167C102.209 86.0043 101.784 86.0043 101.643 86.2167Z" fill="#E32682"/>
<path d="M82.9553 60.4507C83.0969 60.8046 83.3092 61.0877 83.4508 61.4417C83.6632 61.3001 83.734 60.9462 83.5924 60.8046C83.5216 60.5214 83.1677 60.3799 82.9553 60.4507Z" fill="#E32682"/>
<path d="M115.587 91.738C115.375 92.1628 115.658 93.0122 116.012 93.2246C116.083 93.2246 116.083 93.2954 116.154 93.2954C115.941 93.4369 115.729 93.5785 115.658 93.7908C115.517 94.1448 115.658 94.4279 116.083 94.5695C116.508 94.7819 116.862 94.6403 117.074 94.1448C117.216 93.7201 117.145 93.2953 116.862 93.2246C117.074 93.1538 117.286 92.9414 117.357 92.729C117.569 92.3043 117.357 91.5965 116.932 91.3841C116.932 91.3841 116.932 91.3841 116.862 91.3841C116.791 91.3133 116.791 91.2425 116.72 91.2425C116.508 91.1009 116.295 91.1717 116.154 91.3133C115.871 91.3841 115.658 91.5257 115.587 91.738Z" fill="#E32682"/>
<path d="M111.411 96.1975C111.411 96.1975 111.411 96.2683 111.411 96.339C111.482 96.4098 111.553 96.4806 111.694 96.5514C111.765 96.4806 111.836 96.4098 111.907 96.339C111.977 96.2683 111.907 96.1267 111.836 96.0559C111.694 95.9851 111.553 96.1267 111.411 96.1975Z" fill="#E32682"/>
<path d="M111.907 96.6931C112.402 97.1178 112.898 97.5425 113.393 97.9672C113.393 97.8964 113.464 97.8964 113.464 97.8256C113.535 97.6841 113.535 97.6133 113.535 97.4717C113.818 97.7548 114.455 97.8964 114.809 97.7548C115.163 97.6133 115.375 97.1178 115.234 96.6223C115.163 96.3391 115.021 96.056 115.304 95.7729C115.517 95.5605 115.375 95.2774 115.092 95.1358C114.667 95.2066 114.526 95.419 114.596 95.7021C114.243 95.8437 113.959 95.9144 113.676 96.056C113.464 96.1976 113.322 96.6223 113.322 96.9762C113.181 96.8346 113.039 96.6931 112.756 96.6223C112.331 96.5515 112.119 96.5515 111.907 96.6931Z" fill="#E32682"/>
<path d="M105.111 90.2515C105.04 90.2515 105.04 90.2515 104.97 90.2515C105.111 90.3931 105.324 90.6055 105.465 90.7471C105.465 90.5347 105.324 90.3223 105.111 90.2515Z" fill="#E32682"/>
<path d="M91.3788 73.1923C91.5911 73.0507 91.5911 72.8383 91.4495 72.6968C91.3788 72.626 91.3788 72.626 91.308 72.5552C91.3788 72.4136 91.3788 72.2012 91.308 72.0597C91.1664 71.8473 90.8125 71.7057 90.6001 71.8473C90.3878 71.9889 90.317 72.3428 90.4585 72.4844C90.5293 72.626 90.6709 72.6968 90.8125 72.6968C90.7417 72.8383 90.7417 72.9799 90.8125 73.1215C90.8833 73.1923 90.8833 73.263 90.954 73.263C90.954 73.263 91.1664 73.263 91.3788 73.1923Z" fill="#E32682"/>
<path d="M103.837 87.9865C103.908 87.7034 103.837 87.491 103.554 87.4202C103.271 87.3495 102.988 87.491 102.846 87.7034C102.775 87.7741 102.846 87.9157 102.846 87.9865C102.988 88.1281 103.058 88.1989 103.2 88.3404C103.483 88.482 103.695 88.2696 103.837 87.9865Z" fill="#E32682"/>
<path d="M103.625 85.509C103.342 85.3674 102.634 85.5798 102.492 85.8629C102.351 86.2168 102.492 86.5707 102.988 86.7831C103.342 86.9247 103.625 86.7123 103.837 86.2876C103.979 85.9337 103.908 85.6506 103.625 85.509Z" fill="#E32682"/>
<path d="M116.012 96.693C116.083 96.6222 116.083 96.339 116.012 96.2682C115.871 96.1975 115.658 96.3391 115.658 96.4806C115.587 96.5514 115.587 96.7638 115.729 96.8346C115.8 96.9054 116.012 96.8346 116.012 96.693Z" fill="#E32682"/>
<path d="M93.5024 72.8383C92.653 72.1305 92.0159 72.6967 91.662 73.4046C91.5204 73.617 91.5204 73.9001 91.5912 74.1125C91.662 74.3956 91.8743 74.6787 92.1575 74.8911C92.5114 75.1035 92.5822 75.4574 92.9361 75.5282C93.4316 75.599 94.281 75.4574 94.6349 74.6787C94.7765 74.3248 94.8473 73.9709 94.7765 73.6877C94.7765 73.617 94.8473 73.6169 94.8473 73.5462C94.9181 73.4046 94.9889 73.1922 95.0597 72.9799C95.1304 72.9799 95.2012 73.0507 95.272 73.0507C95.5552 73.0507 95.7675 72.9091 95.7675 72.626C95.7675 72.4844 95.6967 72.2012 95.5552 72.1305C95.2012 71.9889 94.9181 72.1305 94.7765 72.4844C94.6349 72.4844 94.4934 72.626 94.3518 72.626C93.9979 72.4844 93.7147 72.6967 93.5024 72.8383C93.5024 72.9091 93.5024 72.8383 93.5024 72.8383Z" fill="#E32682"/>
<path d="M103.058 79.3505C103.129 79.7752 103.412 79.846 103.766 79.7752C104.049 80.4123 104.403 80.5539 104.828 80.3415C104.828 80.5539 104.97 80.7662 105.182 80.837C105.536 80.9786 105.819 80.837 105.89 80.5539C105.961 80.3415 105.89 80.0584 105.678 79.9168C105.89 79.9168 106.031 79.846 106.102 79.6337C106.244 79.4213 106.173 79.2797 106.102 79.0674C105.819 78.5719 105.607 78.5011 105.111 78.855C104.757 79.0674 104.403 79.2797 104.049 79.4921C103.625 78.855 103.554 78.855 103.058 79.3505Z" fill="#E32682"/>
<path d="M90.7418 61.0879C90.7418 60.8048 90.3878 60.5217 90.0339 60.734C89.7508 61.0172 90.0339 61.4419 90.2463 61.5126C90.5294 61.5126 90.7418 61.3003 90.7418 61.0879Z" fill="#E32682"/>
<path d="M93.8563 66.1845C93.7855 66.2553 93.5732 66.4676 93.7147 66.5384C93.7855 66.68 94.0687 66.6092 94.0687 66.5384C94.1395 66.4676 94.281 66.326 94.1395 66.1845C94.0687 66.1137 93.9271 66.1845 93.8563 66.1845Z" fill="#E32682"/>
<path d="M96.7585 65.5473C96.8293 65.5473 96.9001 65.335 96.8293 65.2642C96.7585 65.1934 96.617 65.1226 96.4754 65.1226C96.4046 65.1226 96.1922 65.2642 96.263 65.4765C96.4046 65.6889 96.617 65.6181 96.7585 65.5473Z" fill="#E32682"/>
<path d="M96.1923 69.5113C96.263 69.6529 96.3338 69.7945 96.4754 69.8653C96.9709 70.0776 97.4664 69.9361 97.7495 69.4406C97.8203 69.3698 97.8911 69.2282 97.9619 69.1574C98.1743 69.299 98.3158 69.3698 98.5282 69.5113C98.8821 69.6529 99.0945 69.6529 99.3068 69.299C99.5192 69.0158 99.5192 68.6619 99.3068 68.3788C99.0945 68.0956 98.8113 68.0248 98.5282 68.0956C98.3158 68.1664 98.1035 68.2372 97.8911 68.3788C97.8203 68.308 97.6788 68.2372 97.608 68.2372C97.254 68.0248 96.6878 68.0956 96.4754 68.3788C96.1215 68.7327 96.1215 69.0866 96.1923 69.5113Z" fill="#E32682"/>
<path d="M94.4226 69.0158C94.6349 69.0158 94.8473 68.8034 94.9181 68.5911C94.9181 68.308 94.7765 68.2372 94.2102 68.2372C93.8563 68.5203 94.2102 69.0158 94.4226 69.0158Z" fill="#E32682"/>
<path d="M94.564 69.5822C94.3517 69.653 94.2101 70.0069 94.3517 70.2193C94.4932 70.4316 94.7764 70.5024 94.9887 70.4316C95.2011 70.29 95.3427 70.0069 95.2011 69.7946C95.0595 69.5822 94.8472 69.4407 94.564 69.5822Z" fill="#E32682"/>
<path d="M87.6271 59.6722C87.6979 59.6014 87.8395 59.4598 87.6979 59.3183C87.6271 59.1059 87.4147 59.1059 87.2732 59.2475C87.1316 59.389 87.1316 59.5306 87.2024 59.6722C87.344 59.743 87.5563 59.743 87.6271 59.6722Z" fill="#E32682"/>
<path d="M109.146 82.182C109.146 82.1112 109.075 82.0405 109.075 81.9697C109.004 81.9697 108.934 82.0404 108.934 82.0404C108.934 82.1112 108.934 82.182 109.004 82.182C109.004 82.2528 109.075 82.2528 109.146 82.182Z" fill="#E32682"/>
<path d="M112.756 93.4369C112.968 93.6493 113.393 93.7201 113.747 93.6493C113.676 93.8617 113.818 94.1448 114.03 94.2156C114.243 94.2864 114.596 94.1448 114.738 93.9324C114.88 93.6493 114.738 93.3662 114.526 93.2246H114.455C114.667 92.8707 114.526 92.446 114.313 92.2336C114.313 92.2336 114.313 92.1628 114.243 92.1628C114.596 92.1628 114.809 91.9505 115.021 91.5258C115.092 91.3842 115.092 91.2426 115.092 91.1011C115.163 91.1718 115.304 91.1718 115.446 91.1718C115.8 91.1011 116.012 90.6056 115.871 90.2516C115.8 89.9685 115.375 89.6854 115.092 89.6854C114.667 89.6854 114.526 90.1101 114.455 90.2516C114.03 90.1101 113.464 90.3224 113.322 90.7471C113.181 91.1718 113.252 91.5258 113.464 91.8089C113.252 91.8089 113.039 91.8797 112.898 92.092C112.473 92.5875 112.473 93.1538 112.756 93.4369Z" fill="#E32682"/>
<path d="M114.172 81.5449C114.172 81.3326 114.172 80.837 114.03 80.7663C113.818 80.6955 113.535 81.1202 113.535 81.191C113.535 81.4034 113.535 81.6865 113.818 81.8281C113.959 81.9697 114.172 81.6865 114.172 81.5449Z" fill="#E32682"/>
<path d="M115.446 86.1461C115.517 85.9337 115.234 85.7213 115.092 85.5798C114.95 85.4382 114.738 85.4382 114.596 85.6506C114.455 85.8629 114.526 86.2168 114.738 86.2876C114.88 86.3584 115.375 86.3584 115.446 86.1461Z" fill="#E32682"/>
<path d="M117.074 88.4819C117.357 88.4819 117.711 88.4819 117.711 88.0572C117.782 87.774 117.853 87.4909 117.923 87.2078C118.136 86.9246 118.065 86.6415 117.782 86.4999C117.499 86.3584 117.216 86.4291 117.003 86.7123C116.862 86.8538 116.791 87.0662 116.579 87.137C116.225 87.2786 116.083 87.5617 116.083 87.9156C116.154 88.128 116.72 88.4819 117.074 88.4819Z" fill="#E32682"/>
<path d="M105.961 75.3158C106.102 75.1034 106.031 74.8203 105.819 74.6787C105.678 74.6079 105.465 74.5371 105.324 74.5371C104.97 74.6787 104.97 75.0327 105.111 75.3866C105.465 75.5282 105.748 75.6698 105.961 75.3158Z" fill="#E32682"/>
<path d="M116.72 82.9607C116.791 82.8899 116.791 82.6067 116.649 82.5359C116.508 82.4651 116.366 82.6775 116.295 82.7483C116.295 82.8191 116.295 82.9607 116.366 83.0315C116.508 83.0315 116.649 83.0315 116.72 82.9607Z" fill="#E32682"/>
<path d="M106.385 85.8629C106.669 86.2168 107.306 86.3584 107.518 86.146C107.943 86.2876 108.297 86.0752 108.367 85.5797C108.438 85.2258 108.438 84.8719 108.367 84.4472C108.297 84.0932 107.801 83.6685 107.376 83.6685C107.164 83.6685 106.669 83.8809 106.739 84.3056C106.952 84.5179 107.022 84.7303 107.022 84.8719C106.81 84.8719 106.598 84.9427 106.456 85.0842C106.173 85.3674 106.173 85.6505 106.385 85.8629Z" fill="#E32682"/>
<path d="M107.376 79.5629C107.518 79.4213 107.659 79.209 107.447 79.0674C107.306 78.9259 107.022 78.9259 106.881 78.9967C106.739 79.0674 106.739 79.3506 106.739 79.4921C106.952 79.7753 107.164 79.7045 107.376 79.5629Z" fill="#E32682"/>
<path d="M89.7507 65.2643C90.1046 65.1227 90.4586 65.0519 90.6709 64.6272C90.6001 64.4856 90.6001 64.2732 90.5293 64.1317C90.8125 63.7777 90.8833 63.2823 90.6709 63.0699C90.5293 62.9283 90.317 62.8575 90.1046 62.9991C89.7507 63.2115 89.6799 63.4238 89.8215 63.9193C89.6091 64.2025 89.4676 64.4856 89.326 64.7687C89.1844 65.0519 89.4676 65.4058 89.7507 65.2643Z" fill="#E32682"/>
<path d="M108.863 87.5617C109.004 87.7032 109.641 87.5617 109.641 87.2785C109.641 87.0662 109.429 86.783 109.217 86.783C108.934 86.8538 108.721 87.4201 108.863 87.5617Z" fill="#E32682"/>
<path d="M102.421 83.2438C102.421 83.0315 102.35 82.8899 102.138 82.8191C101.855 82.6775 101.572 82.7483 101.43 83.0315C101.289 83.2438 101.43 83.5977 101.643 83.6685C101.855 83.8101 102.067 83.7393 102.28 83.5269C102.209 83.7393 102.28 84.0224 102.421 84.2348C102.775 84.6595 103.483 84.6595 103.837 84.3056C104.12 84.0224 104.12 83.3854 103.908 83.0315C103.625 82.6775 103.058 82.6775 102.563 83.1022C102.492 83.173 102.492 83.173 102.421 83.2438Z" fill="#E32682"/>
<path d="M82.7429 55.7789C82.4598 56.062 82.6014 56.3452 82.7429 56.6283C83.0969 56.6283 83.4508 56.6991 83.5924 56.2744C83.5924 56.2744 83.5924 56.2036 83.5924 56.1328C83.8755 56.2036 84.3002 56.2036 84.5126 56.062C84.7249 55.9205 84.7957 55.5666 84.5834 55.3542C84.3002 55.0003 83.8755 54.7879 83.5924 55.0003C83.38 55.1419 83.2384 55.3542 83.2384 55.6373C83.0969 55.5666 82.8845 55.6373 82.7429 55.7789Z" fill="#E32682"/>
<path d="M84.1587 58.0441C83.5924 58.398 83.4508 58.8935 83.8048 59.4598C84.0879 59.8845 84.7958 60.0261 85.2205 59.7429C85.5744 59.5306 85.6452 58.752 85.362 58.2565C85.1497 57.8317 84.5834 57.7609 84.1587 58.0441Z" fill="#E32682"/>
<path d="M82.4597 53.9385C82.1766 54.0093 81.9642 54.434 82.2474 54.7171C82.3889 54.8587 82.6721 54.7171 82.9552 54.6463C83.026 54.6463 83.1676 54.6463 83.1676 54.434C83.0968 54.2216 82.7429 53.8677 82.4597 53.9385Z" fill="#E32682"/>
<path d="M84.3002 61.3002C84.0878 61.4418 84.017 61.8665 84.1586 62.1497C84.371 62.5036 84.8665 62.7159 85.1496 62.5036C85.5035 62.2912 85.7159 61.725 85.5035 61.4418C85.362 61.1587 84.6541 61.1587 84.3002 61.3002Z" fill="#E32682"/>
<path d="M88.1934 68.9451C88.335 68.9451 88.4058 68.9451 88.4766 68.9451C88.335 69.2282 88.4058 69.653 88.4766 69.7237C88.6182 69.8653 89.1844 69.8653 89.3968 69.5114C89.5384 69.299 89.5384 69.0159 89.2552 68.8035C89.1137 68.7328 89.0429 68.662 88.9013 68.662C88.9013 68.662 88.9013 68.662 88.9721 68.5912C89.1844 68.3788 89.1137 68.0957 89.0429 67.8833C88.9721 67.671 88.7597 67.3878 88.4766 67.3878C88.1934 67.3878 87.9103 67.1755 87.6979 67.3878C87.5564 67.5294 87.4856 67.671 87.4856 67.8126C87.4856 67.9541 87.4148 68.0249 87.4148 68.1665C87.5564 68.3788 87.6272 68.5204 87.7687 68.7327C87.9103 68.8743 88.0519 68.9451 88.1934 68.9451Z" fill="#E32682"/>
<path d="M82.5306 59.3889C82.8845 59.1766 83.0261 58.5395 82.7429 58.1148C82.5305 57.7609 81.8935 57.5485 81.5396 57.6901C81.8227 58.2564 82.1058 58.8226 82.4598 59.4597C82.4598 59.3889 82.4598 59.3889 82.5306 59.3889Z" fill="#E32682"/>
<path d="M85.5035 65.0519C85.7159 65.4059 85.9282 65.8306 86.2114 66.1845C86.353 65.9014 86.4945 65.4767 86.353 65.3351C86.2114 65.052 85.8575 64.9104 85.5035 65.0519Z" fill="#E32682"/>
<path d="M111.623 82.2528C111.199 82.1112 110.632 82.3944 110.491 82.7483C110.349 83.0314 110.632 83.4561 110.986 83.5977C111.411 83.7392 111.765 83.5977 111.907 83.173C112.119 82.8191 111.977 82.3944 111.623 82.2528Z" fill="#E32682"/>
<path d="M119.268 90.8886C119.127 90.8886 118.914 90.9594 118.773 90.9594C118.631 91.3133 118.844 91.5965 119.056 91.6672C119.268 91.738 119.41 91.5965 119.481 91.3841C119.622 91.1718 119.552 90.9594 119.268 90.8886Z" fill="#E32682"/>
<path d="M112.544 87.3493C112.402 87.6325 112.544 87.9864 112.827 88.0572C113.11 88.1279 113.464 87.9156 113.535 87.6325C113.605 87.3493 113.464 87.0662 113.181 86.9954C112.898 86.8538 112.685 86.9954 112.544 87.3493Z" fill="#E32682"/>
<path d="M112.827 84.9426C112.544 84.8011 112.26 84.8719 112.119 85.155C111.977 85.4382 112.119 85.7213 112.331 85.8629C112.544 85.9337 112.968 85.8629 113.039 85.6505C113.181 85.3674 113.039 85.0842 112.827 84.9426Z" fill="#E32682"/>
<path d="M80.1238 53.3014C79.7699 52.9475 79.4868 52.8767 79.2036 52.8767C79.6283 53.7969 80.0531 54.7171 80.4778 55.6374C80.6901 55.4958 80.8317 55.3542 80.9733 55.1418C81.2564 54.7171 81.3272 54.2924 81.1856 53.9385C81.0441 53.5846 80.4778 53.6554 80.1238 53.3014Z" fill="#E32682"/>
<path d="M118.348 95.1358C118.277 95.4189 118.419 95.7021 118.702 95.7729C118.631 95.8437 118.56 95.9853 118.56 96.1268C118.773 95.7021 118.985 95.2774 119.198 94.8527C118.844 94.7111 118.419 94.8527 118.348 95.1358Z" fill="#E32682"/>
<path d="M78.9205 51.4611C78.8497 51.4611 78.7081 51.5319 78.6373 51.5319C78.7789 51.8858 78.9913 52.2397 79.1328 52.5937C79.3452 52.5937 79.4868 52.3813 79.4868 52.169C79.4868 51.8858 79.2036 51.4611 78.9205 51.4611Z" fill="#E32682"/>
<path d="M120.047 84.4471C119.764 84.5887 119.835 84.5179 119.551 84.3056C119.268 84.164 118.773 84.0224 118.631 84.5887C118.49 85.155 118.914 85.5798 119.41 85.7921C119.905 85.9337 120.755 85.4382 120.755 84.8011C120.896 84.4471 120.33 84.3056 120.047 84.4471Z" fill="#E32682"/>
<path d="M120.118 88.9774C119.976 89.3313 120.189 89.6145 120.401 89.6852C120.613 89.756 120.755 89.6145 120.826 89.4021C120.896 89.1898 120.826 88.9066 120.613 88.9066C120.401 88.9066 120.189 88.9774 120.118 88.9774Z" fill="#E32682"/>
<path d="M120.542 89.756C120.472 89.756 120.188 89.8976 120.188 90.0392C120.188 90.1807 120.542 90.3223 120.613 90.3223C120.684 90.3223 120.826 90.11 120.826 89.9684C120.826 89.8976 120.684 89.756 120.542 89.756Z" fill="#E32682"/>
<path d="M107.659 81.2618C107.589 81.3326 107.589 81.5449 107.659 81.6157C107.73 81.6865 107.943 81.8281 108.013 81.7573C108.084 81.6865 108.084 81.4741 108.084 81.4033C108.013 81.2618 107.73 81.1202 107.659 81.2618Z" fill="#E32682"/>
<path d="M100.298 72.272C100.015 72.4844 99.8731 72.9798 100.015 73.1922C100.227 73.4754 100.864 73.6169 101.147 73.3338C101.43 73.1214 101.501 72.5551 101.218 72.272C101.006 71.9888 100.652 71.9888 100.298 72.272Z" fill="#E32682"/>
<path d="M108.013 78.5012C107.872 78.6428 107.872 79.0675 108.226 79.2091C108.297 79.2799 108.58 79.2091 108.65 79.1383C108.721 78.9967 108.792 78.7844 108.792 78.6428C108.58 78.2889 108.155 78.3597 108.013 78.5012Z" fill="#E32682"/>
<path d="M102.351 81.0493C102.563 80.9078 102.634 80.6247 102.421 80.4831C102.28 80.3415 101.997 80.0584 101.713 80.2707C101.43 80.4831 101.713 80.837 101.784 81.0493C101.855 81.1909 102.138 81.1909 102.351 81.0493Z" fill="#E32682"/>
<path d="M101.43 75.5989C101.147 75.882 101.076 76.3067 101.43 76.6606C101.784 77.0854 102.351 77.0853 102.775 76.7314C103.058 76.4483 103.129 75.882 102.775 75.5281C102.492 75.1741 101.855 75.2449 101.43 75.5989Z" fill="#E32682"/>
<path d="M103.2 70.644C102.917 70.8564 102.917 71.2811 103.2 71.7058C103.342 71.9182 103.766 71.989 103.979 71.8474C104.262 71.635 104.403 71.1395 104.191 70.9272C103.979 70.5732 103.483 70.4317 103.2 70.644Z" fill="#E32682"/>
<path d="M110.066 86.9954C109.854 87.137 109.783 87.4202 109.925 87.6326C110.066 87.8449 110.42 87.8449 110.632 87.7033C110.845 87.5618 110.916 87.2078 110.774 87.0662C110.562 86.9247 110.279 86.8539 110.066 86.9954Z" fill="#E32682"/>
<path d="M109.854 89.119C109.925 89.1898 110.137 89.2606 110.208 89.2606C110.349 89.1898 110.562 88.9774 110.562 88.8359C110.562 88.5527 110.279 88.4819 110.066 88.4112C109.712 88.6235 109.641 88.8359 109.854 89.119Z" fill="#E32682"/>
<path d="M107.589 90.3223C107.447 90.2515 107.306 90.11 107.235 90.0392C107.235 89.9684 107.164 89.8976 107.164 89.8976C107.022 89.6852 106.598 89.6145 106.456 89.756C106.244 89.8976 106.244 90.2515 106.385 90.4639C106.456 90.5347 106.598 90.6055 106.668 90.6055C106.668 90.6763 106.668 90.6763 106.739 90.747C106.952 91.101 107.235 90.9594 107.589 90.8886C107.659 91.0302 107.801 91.1718 107.872 91.3841C107.659 91.5257 107.447 91.6673 107.306 91.8088C107.306 92.0212 107.306 92.2336 107.376 92.3751C107.447 92.6583 107.943 93.0122 108.155 92.9414C108.438 92.9414 108.65 92.5875 108.721 92.1628C108.721 92.0212 108.721 91.8796 108.721 91.7381C109.004 91.5965 109.358 91.4549 109.5 91.1718C109.571 91.1718 109.641 91.2425 109.712 91.2425C109.854 91.3841 110.066 91.4549 110.279 91.4549C110.632 91.4549 110.845 91.2425 110.916 90.8886C110.986 90.6055 111.199 90.11 110.916 89.8976C110.703 89.6852 110.562 89.8268 110.42 89.8976C110.208 89.6852 109.925 89.5437 109.641 89.6145C109.288 89.6852 109.075 89.8268 108.934 89.9684C108.863 89.9684 108.863 89.8976 108.792 89.8976C108.226 89.6852 107.872 89.8976 107.589 90.3223Z" fill="#E32682"/>
<path d="M109.288 82.4652C109.146 82.6068 109.146 82.8191 109.288 82.8899C109.429 83.0315 109.642 82.9607 109.712 82.8899C109.783 82.8191 109.854 82.6775 109.783 82.536C109.642 82.3236 109.429 82.3236 109.288 82.4652Z" fill="#E32682"/>
<path d="M98.8112 80.2708C98.5989 80.4124 98.5989 80.9079 98.8112 81.1202C99.0944 81.4742 99.5191 81.5449 99.8023 81.3326C100.156 81.0494 100.227 80.4832 100.015 80.2C99.8023 79.9169 99.0236 79.9877 98.8112 80.2708Z" fill="#E32682"/>
<path d="M88.7597 62.1497C88.8305 61.8665 88.1226 61.5834 87.8395 61.7249L87.7687 61.7957C87.6271 61.6542 87.4856 61.5126 87.2732 61.6542C86.9901 61.7957 87.2024 62.2204 87.2024 62.4328C87.2732 62.6451 87.4856 62.6451 87.6979 62.5743C87.9811 62.7867 88.6889 62.5036 88.7597 62.1497Z" fill="#E32682"/>
<path d="M87.6271 63.4238C87.4856 63.5654 87.5564 63.6362 87.6271 63.707C87.6979 63.7777 87.9103 63.9193 88.0519 63.7778C88.1934 63.6362 88.0519 63.4238 87.9811 63.4238C87.9103 63.4238 87.7687 63.353 87.6271 63.4238Z" fill="#E32682"/>
<path d="M91.308 67.2462C90.9541 67.4586 90.8833 67.6709 91.0956 67.9541H91.0248C90.6709 68.0957 90.4586 68.5912 90.6001 69.0159C90.7417 69.4406 91.0248 69.3698 91.0956 69.6529C91.1664 69.9361 91.3788 69.9361 91.6619 69.9361C91.945 69.9361 92.4405 69.8653 92.3698 69.4406C92.299 69.0159 92.0158 69.0159 91.945 69.0159C91.8035 69.0159 91.5911 68.8743 91.7327 68.8035C91.8743 68.7327 91.8743 68.5912 91.8035 68.3788C91.945 68.3788 92.0866 68.3788 92.1574 68.308C92.4405 68.1664 92.4405 67.6002 92.2282 67.317C92.0866 67.1047 91.6619 67.0339 91.308 67.2462Z" fill="#E32682"/>
<path d="M88.8305 66.0428C89.1844 65.8305 89.2552 65.1226 89.0428 64.7687C88.7597 64.3439 88.1934 64.2732 87.6979 64.6271C87.2732 64.9103 87.1316 65.335 87.4148 65.7597C87.6979 66.2552 88.4058 66.3968 88.8305 66.0428Z" fill="#E32682"/>
<path d="M98.1742 77.0147C97.6787 77.4394 97.6079 77.9349 98.0327 78.4304C98.3866 78.8551 99.0944 78.8551 99.4484 78.5011C99.7315 78.218 99.7315 77.4394 99.3776 77.0147C99.0944 76.6607 98.5989 76.6607 98.1742 77.0147Z" fill="#E32682"/>
<path d="M95.3428 77.0854C94.9181 77.4394 94.8473 78.0057 95.1305 78.3596C95.4136 78.7135 96.3338 78.7843 96.6877 78.5719C97.0417 78.2888 97.0417 77.6517 96.7585 77.227C96.4754 76.8731 95.6967 76.8023 95.3428 77.0854Z" fill="#E32682"/>
<path d="M93.0068 63.5653C92.936 63.6361 92.936 63.8485 92.936 63.9192C93.0068 63.99 93.1484 64.2024 93.29 64.1316C93.3607 64.0608 93.4315 63.8485 93.3607 63.7777C93.3607 63.6361 93.0776 63.4238 93.0068 63.5653Z" fill="#E32682"/>
<path d="M67.8072 67.7419C72.733 67.7419 76.7262 63.717 76.7262 58.7521C76.7262 53.7872 72.733 49.7623 67.8072 49.7623C62.8814 49.7623 58.8882 53.7872 58.8882 58.7521C58.8882 63.717 62.8814 67.7419 67.8072 67.7419Z" fill="#FFC200"/>
<path d="M62.569 65.9722C64.0555 67.034 65.8251 67.6711 67.8071 67.6711C72.7621 67.6711 76.7261 63.6363 76.7261 58.6813C76.7261 56.6285 76.0182 54.7173 74.8149 53.1601C69.6475 56.2746 65.3296 60.6633 62.569 65.9722Z" fill="#F9B110"/>
</svg>
